<svg viewBox="0 0 830 721" xmlns="http://www.w3.org/2000/svg">
  <defs>
    <style>
      text{font-family:Caveat;font-size:36px;font-weight:400;line-spacing:1}
    </style>
  </defs>
  <g class="Hero1" fill="none" fill-rule="evenodd">
    <g class="Hero1-boxes">
      <path fill="#C1C1C1" d="M180 31h60v60h-60z"/>
      <path stroke="#010101" stroke-width="3" d="M181.5 33h57v57h-57z"/>
      <path fill="#9E9E9E" d="M180 101h60v570h-60z"/>
      <path stroke="#010101" stroke-width="3" d="M181.5 103h57v567h-57z"/>
      <path fill="#D8D8D8" d="M250 591h440v80H250z"/>
      <path stroke="#010101" stroke-width="3" d="M251.5 593h437v77h-437z"/>
      <path fill="#D8D8D8" d="M250 191h440v120H250z"/>
      <path stroke="#010101" stroke-width="3" d="M251.5 193h437v117h-437z"/>
      <path fill="#D6D6D6" d="M550 321h140v120H550z"/>
      <path stroke="#010101" stroke-width="3" d="M551.5 323h137v117h-137z"/>
      <g>
        <path fill="#767676" d="M250 459h140v120H250z"/>
        <path stroke="#010101" stroke-width="3" d="M251.5 461h137v117h-137z"/>
      </g>
      <g>
        <path fill="#9C9C9C" d="M400 391h140v120H400z"/>
        <path stroke="#010101" stroke-width="3" d="M401.5 393.5h137v117h-137z"/>
      </g>
      <g>
        <path fill="#EFEFEF" d="M250 32h200v150H250z"/>
        <path stroke="#010101" stroke-width="3" d="M251.5 33.5h197v147h-197z"/>
      </g>
      <g>
        <path fill="#E9E9E9" d="M460 31h230v150H460z"/>
        <path stroke="#010101" stroke-width="3" d="M461.5 33.5h227v147h-227z"/>
      </g>
    </g>
    <g id="icons" stroke="#000">
      <path stroke-width="3" d="M191.5 113.5h37v37h-37z"/>
      <g stroke-width="6" stroke-linecap="square">
        <path d="M197.5 51.5H222M197.5 61.5H222M197.5 72.5H222"/>
      </g>
    </g>
    <g id="content" stroke="#000" stroke-width="15">
      <path d="M301 363.5h180M301 334.5h180M189 651h43M189 626h43M189 600h43"/>
      <g>
        <path d="M485 107h180M485 78h180M485 136h180"/>
      </g>
    </g>
    <g id="labels">
      <path d="M164.33 62.8l-10.1-3.32 6.5 17.88 6.22-13.5c-21.17 8.98-36.93 10.24-47.81 5.08" stroke="#000" stroke-width="4" stroke-linecap="round" stroke-linejoin="round"/>
      <text transform="rotate(19 33.1 117.23)" fill="#000">
        <tspan x="9" y="47">burger</tspan> <tspan x="18" y="82">menu</tspan>
      </text>
      <path d="M164.8 364.78l-7.9 5.96 1.65-18.95 8.51 11.3c-21.78-3.07-37.47.78-46.5 7.6" stroke="#000" stroke-width="4" stroke-linecap="round" stroke-linejoin="round"/>
      <text transform="rotate(19 -952.8 447.6)" fill="#000">
        <tspan x="3" y="71">sidebar</tspan>
      </text>
      <path d="M711.03 632.1l7.62-7.41 2 18.92-10.52-9.46c22.97-1.2 36.64-7.93 44.21-16.34" stroke="#000" stroke-width="4" stroke-linecap="round" stroke-linejoin="round"/>
      <text transform="rotate(19 -1297.6 2432.4)" fill="#000">
        <tspan x="14" y="46">footer</tspan>
      </text>
      <path d="M553.67 472.66l5.18 9.28 5.9-18.17-11.85 7.7c21.52 4.57 34.17 12.38 41.1 23.05" stroke="#000" stroke-width="4" stroke-linecap="round" stroke-linejoin="round"/>
      <text transform="rotate(-18 1792.32 -1436.78)" fill="#000">
        <tspan x="8" y="69">portfolio </tspan> <tspan x="25" y="104">items</tspan>
      </text>
      <path d="M165.03 141.13l-3.38 9.3-9.85-16.38 13.3 4.84c-19.95 9.3-30.52 19.75-34.87 31.7" stroke="#000" stroke-width="4" stroke-linecap="round" stroke-linejoin="round"/>
      <text fill="#000" transform="translate(79 129)">
        <tspan x="9.11" y="76">home</tspan> <tspan x="0" y="111">button</tspan>
      </text>
      <g>
        <path d="M161.19 631.5l-2.57-9.56-11.23 15.45 14.53-3.16c-19.92-11.5-29.54-22.83-32.84-35.12" stroke="#000" stroke-width="4" stroke-linecap="round" stroke-linejoin="round"/>
        <text transform="rotate(-18 1671.57 52.92)" fill="#000">
          <tspan x="20" y="44">site</tspan> <tspan x="9" y="79">name</tspan>
        </text>
      </g>
      <g>
        <path d="M715.03 99.1l7.62-7.41 2 18.92-10.52-9.46c22.97-1.2 36.64-7.93 44.21-16.34" stroke="#000" stroke-width="4" stroke-linecap="round" stroke-linejoin="round"/>
        <text transform="rotate(19 338.28 2154.94)" fill="#000">
          <tspan x="2" y="51">lead text</tspan>
        </text>
      </g>
      <text transform="rotate(19 311.1 163.23)" fill="#000">
        <tspan x="269" y="110">profile pic</tspan>
      </text>
      <text transform="rotate(-18 466.41 170.05)" fill="#000">
        <tspan x="400" y="235">hero </tspan> <tspan x="361" y="270">illustration</tspan>
      </text>
    </g>
  </g>
</svg>
