<svg class="Svg" width="830" height="720" viewBox="0 0 830 720" xmlns="http://www.w3.org/2000/svg" xmlns:xlink="http://www.w3.org/1999/xlink">
    <defs>
        <style>
            .Svg g {
                transform-origin: center;
                fill-rule: evenodd;
            }
            .Svg tspan {
                font-family: Caveat;
                font-size: 36px;
                font-weight: normal;
                line-spacing: 1;
                fill: rgba(0,0,0,.8);
            }
            .Svg .arrow {
                stroke: rgba(0,0,0,.6);
                stroke-width: 4;
                stroke-linecap: round;
                stroke-linejoin: round;
            }
            .Svg .box {
                stroke: rgba(0,0,0,.6);
                fill: none;
                stroke-width: 3;
            }
            .Svg .line {
                stroke: rgba(0,0,0,.9);
                stroke-width: 3;
            }
            .Svg .line.med {
                stroke-width: 6;
            }
            .Svg .line.thick {
                stroke-width: 15;
            }
            .Svg .line.dash {
                stroke-linecap: round;
                stroke-linejoin: round;
                stroke-dasharray: 12;
            }
            .Svg .fill {
                fill: rgba(0,0,0,.4);
            }
            .Svg .fill.a {
                fill: rgba(0,0,0,.1);
            }
            .Svg .fill.b {
                fill: rgba(0,0,0,.2);
            }
            .Svg .fill.c {
                fill: rgba(0,0,0,.3);
            }
            .Svg .fill.d {
                fill: rgba(0,0,0,.4);
            }
            .Svg .fill.e {
                fill: rgba(0,0,0,.5);
            }
            .Svg .fill.f {
                fill: rgba(0,0,0,.6);
            }
            .Svg .fill.g {
                fill: rgba(0,0,0,.7);
            }
            .Svg .fill.h {
                fill: rgba(0,0,0,.8);
            }
            .Svg .fill.i {
                fill: rgba(0,0,0,.9);
            }
        </style>
    </defs>
    <g fill="none" fill-rule="evenodd">
        <g class="HomeHeroBg-boxes">
            <g>
                <path class="line med" d="M183 194h504v394H183z"/>
            </g>
            <g transform="translate(180 461)">
                <path class="fill a" d="M0 0h121v130H0z"/>
                <path class="box" d="M1.5 1.5h118v127H1.5z"/>
            </g>
            <g transform="translate(180 461)">
                <path class="fill b" d="M190 50h320v80H190z"/>
                <path class="box" stroke-width="3" d="M191.5 51.5h317v77h-317z"/>
            </g>
        </g>
        <g class="HomeHeroBg-labels">
            <g>
                <path d="M264.55 359.67l5.22-9.14-18.76 3.03 12.23 8.01c-5.56-22.29-3.56-37.4 2.3-47.71" class="arrow"/>
                <text transform="rotate(19 -637.56 879.02)">
                    <tspan x="3.71" y="45.93">player</tspan>
                </text>
            </g>
            <g>
                <path d="M452.15 484.35l7.22-7.67 2.59 18.82-11.24-9.35c22.94-1.2 36.81-7.53 44.95-16.15" class="arrow"/>
                <text transform="rotate(19 -980.8 1584.55)">
                    <tspan x="15.1" y="47">enemy</tspan>
                </text>
            </g>
            <g>
                <text transform="rotate(19 45.12 966.12)">
                    <tspan x="145.17" y="317.16">jump</tspan>
                </text>
            </g>
            <g>
                <path d="M239.36 178.14l5.07-9.24-18.7 3.36 12.36 7.8c-5.95-22.2-4.21-37.34 1.47-47.75" class="arrow"/>
                <text transform="translate(210 89)">
                    <tspan x="0" y="35.74">score</tspan>
                </text>
            </g>
            <g>
                <path d="M613.41 418.85l1.42-10.44-16.25 9.84 14.33 2.85c-13.5-18.58-17.31-33.35-15.73-45.1" class="arrow"/>
                <text transform="rotate(-18 1323.69 -1537.88)">
                    <tspan x="3.3" y="47.43">pickups</tspan>
                </text>
            </g>
            <g>
                <path d="M653.44 178.26l-1.06-10.48 15.9 10.4-14.42 2.34c14.14-18.1 18.46-32.72 17.3-44.52" class="arrow"/>
                <text transform="rotate(19 127.02 1965.55)">
                    <tspan x="3.57" y="46.74">health</tspan>
                </text>
            </g>
        </g>
        <g class="HomeHeroBg-icons">
            <g transform="translate(240 375)">
                <path class="line fill c" d="M20 41.35L37.57 76.5H2.43L20 41.35z"/>
            </g>
            <g transform="translate(240 375)">
                <circle class="line fill d" cx="20" cy="19" r="17.5"/>
            </g>
            <g>
                <path class="line med dash" d="M302.58 425.8c15.74-15.73 55.62-31.54 80.91-15.73 16.46 10.29 30.42 27.42 37.42 54.2"/>
            </g>
            <g transform="translate(190 194)">
                <path class="line fill d" d="M440.03 265.53l1.68-9.76.13-.78-.57-.55-7.1-6.92 9.81-1.42.79-.12.34-.7 4.39-8.9 4.39 8.9.34.7.79.12 9.8 1.42-7.1 6.92-.56.55.13.78 1.68 9.76-8.77-4.6-.7-.37-.7.36-8.77 4.61z"/>
            </g>
            <g transform="translate(190 194)">
                <path class="line fill d" d="M235.14 279l17.14 12.45-6.55 20.15h-21.18L218 291.45z"/>
            </g>
            <g>
                <path class="line fill" d="M659.29 233.15s-13.88-12.53-14.27-18.38c-.4-5.84 6.07-13.83 14.27-4.47 8.34-9.36 14.8-1.37 14.42 4.47-.4 5.85-14.42 18.38-14.42 18.38z"/>
                <path class="line fill" d="M622.29 233.15s-13.88-12.53-14.27-18.38c-.4-5.84 6.07-13.83 14.27-4.47 8.34-9.36 14.8-1.37 14.42 4.47-.4 5.85-14.42 18.38-14.42 18.38z"/>
                <path class="line" d="M585.29 233.15s-13.88-12.53-14.27-18.38c-.4-5.84 6.07-13.83 14.27-4.47 8.34-9.36 14.8-1.37 14.42 4.47-.4 5.85-14.42 18.38-14.42 18.38z"/>
            </g>
            <g>
                <text transform="translate(190 194)">
                    <tspan x=".3" y="35">8888888</tspan>
                </text>
            </g>
        </g>
    </g>
</svg>
