<svg class="Svg" width="830" height="721" viewBox="0 0 830 721" xmlns="http://www.w3.org/2000/svg" xmlns:xlink="http://www.w3.org/1999/xlink">
    <defs>
        <style>
            .Svg g {
                transform-origin: center;
                fill-rule: evenodd;
            }
            .Svg tspan {
                font-family: Caveat;
                font-size: 36px;
                font-weight: normal;
                line-spacing: 1;
                fill: rgba(0,0,0,.8);
            }
            .Svg .arrow {
                stroke: rgba(0,0,0,.6);
                stroke-width: 4;
                stroke-linecap: round;
                stroke-linejoin: round;
            }
            .Svg .box {
                stroke: rgba(0,0,0,.6);
                fill: none;
                stroke-width: 3;
            }
            .Svg .line {
                stroke: rgba(0,0,0,.9);
                stroke-width: 3;
            }
            .Svg .line.med {
                stroke-width: 6;
            }
            .Svg .line.thick {
                stroke-width: 15;
            }
            .Svg .line.wide {
                stroke-width: 20;
            }
            .Svg .line.dash {
                stroke-linecap: round;
                stroke-linejoin: round;
                stroke-dasharray: 12;
            }
            .Svg .fill {
                fill: rgba(0,0,0,.4);
            }
            .Svg .fill.a {
                fill: rgba(0,0,0,.1);
            }
            .Svg .fill.b {
                fill: rgba(0,0,0,.2);
            }
            .Svg .fill.c {
                fill: rgba(0,0,0,.3);
            }
            .Svg .fill.d {
                fill: rgba(0,0,0,.4);
            }
            .Svg .fill.e {
                fill: rgba(0,0,0,.5);
            }
            .Svg .fill.f {
                fill: rgba(0,0,0,.6);
            }
            .Svg .fill.g {
                fill: rgba(0,0,0,.7);
            }
            .Svg .fill.h {
                fill: rgba(0,0,0,.8);
            }
            .Svg .fill.i {
                fill: rgba(0,0,0,.9);
            }
        </style>
    </defs>
    <g fill="none" fill-rule="evenodd">
        <g class="HomeHeroBg-boxes">
            <g>
                <rect class="line wide" x="287" y="42" width="300" height="620" rx="40"/>
            </g>
            <g>
                <path class="box" d="M509.5 64.5h57v57h-57z"/>
            </g>
            <g transform="translate(297 63)">
                <path class="box" d="M1.5 68.5h277v147H1.5z"/>
            </g>
            <g>
                <path class="box" d="M306.5 64.5h197v57h-197z"/>
                <path class="box" d="M318.5 575.5h112v77h-112z"/>
                <path class="box" d="M443.5 484.5h112v77h-112z"/>
                <path class="box" d="M443.5 575.5h112v77h-112z"/>
                <path class="box" d="M318.5 484.5h112v77h-112z"/>
            </g>
        </g>
        <g class="HomeHeroBg-content">
            <g>
                <path class="line med" d="M525.6 82.69h24.35M525.6 92.55h24.35M525.6 103.31h24.35"/>
            </g>
            <g>
                <path class="line thick" d="M316.7 365.5H468M316.7 456.5H558M316.7 336.5H468M316.7 397.5H558M316.7 426.5H558M316.7 307.5H468"/>
                <path class="line med" d="M485 305h67v65h-67z"/>
            </g>
        </g>
        <g class="HomeHeroBg-labels">
            <g>
                <path class="arrow" d="M254.42 97.11l-7.74-7.15-1.27 18.96 10.56-10.11c-22.97.4-37.25-4.95-45.97-12.98"/>
                <text transform="rotate(19 -26.02 478.11)">
                    <tspan x="4.47" y="41.37">logo</tspan>
                </text>
            </g>
            <g>
                <path class="arrow" d="M619.6 394.08l5.46-9 6.44 17.88-12.93-6.81c22.18-5.95 34.44-15.02 40.6-25.15"/>
                <text transform="rotate(19 -540.46 2028.08)">
                    <tspan x="25.27" y="52.53">body text</tspan>
                </text>
            </g>
            <g>
                <path class="arrow" d="M626.85 563.31l5.93 8.71 5.5-18.19-12.56 7.48c22.46 4.77 35.18 13.2 41.87 22.98"/>
                <text transform="rotate(-18 2113.94 -1619.35)">
                    <tspan x="9" y="68.73">portfolio</tspan>
                    <tspan x="26.62" y="103.73">items</tspan>
                </text>
            </g>
            <g>
                <path class="arrow" d="M263.8 209.3l-9.07 5.39 2.71-18.82 8.22 12.09c-22.38-5.17-37.46-2.9-47.66 3.14"/>
                <text transform="rotate(30 -230.73 416.98)">
                    <tspan x="18.95" y="46.81">hero</tspan>
                    <tspan x="13.08" y="81.81">image</tspan>
                </text>
            </g>
            <g>
                <path class="arrow" d="M617.15 86.35l7.22-7.67 2.59 18.82-11.24-9.35c22.94-1.2 36.81-7.53 44.95-16.15"/>
                <text transform="rotate(19 297.11 1902.49)">
                    <tspan x="69.15" y="46.44">menu</tspan>
                    <tspan x="59.16" y="81.44">button</tspan>
                </text>
            </g>
        </g>
    </g>
</svg>
