<?xml version="1.0" encoding="UTF-8"?>
<svg width="333px" height="637px" viewBox="0 0 333 637" version="1.1" xmlns="http://www.w3.org/2000/svg" xmlns:xlink="http://www.w3.org/1999/xlink">
    <!-- Generator: Sketch 43.1 (39012) - http://www.bohemiancoding.com/sketch -->
    <title>Artboard</title>
    <desc>Created with Sketch.</desc>
    <defs></defs>
    <g id="Page-1" stroke="none" stroke-width="1" fill="none" fill-rule="evenodd">
        <g id="Artboard" fill-rule="nonzero" fill="#000000">
            <path d="M54,159 C54.5,159 55,159.1 55.3,159.3 L108.7,189.8 C109.4,190.2 110,191.2 110,192 L110,253 C110,253.8 109.4,254.8 108.7,255.2 L55.3,285.8 C54.6,286.2 53.4,286.2 52.7,285.8 L-0.7,255.3 C-1.4,254.9 -2,253.9 -2,253.1 L-2,192.1 C-2,191.3 -1.4,190.3 -0.7,189.9 L52.7,159.4 C53,159.1 53.5,159 54,159 L54,159 Z" id="Shape"></path>
            <path d="M54,350 C54.5,350 55,350.1 55.3,350.3 L108.7,380.8 C109.4,381.2 110,382.2 110,383 L110,444 C110,444.8 109.4,445.8 108.7,446.2 L55.3,476.8 C54.6,477.2 53.4,477.2 52.7,476.8 L-0.7,446.3 C-1.4,445.9 -2,444.9 -2,444.1 L-2,383.1 C-2,382.3 -1.4,381.3 -0.7,380.9 L52.7,350.4 C53,350.1 53.5,350 54,350 L54,350 Z" id="Shape-Copy-4"></path>
            <path d="M54,541 C54.5,541 55,541.1 55.3,541.3 L108.7,571.8 C109.4,572.2 110,573.2 110,574 L110,635 C110,635.8 109.4,636.8 108.7,637.2 L55.3,667.8 C54.6,668.2 53.4,668.2 52.7,667.8 L-0.7,637.3 C-1.4,636.9 -2,635.9 -2,635.1 L-2,574.1 C-2,573.3 -1.4,572.3 -0.7,571.9 L52.7,541.4 C53,541.1 53.5,541 54,541 L54,541 Z" id="Shape-Copy-10"></path>
            <path d="M166,159 C166.5,159 167,159.1 167.3,159.3 L220.7,189.8 C221.4,190.2 222,191.2 222,192 L222,253 C222,253.8 221.4,254.8 220.7,255.2 L167.3,285.8 C166.6,286.2 165.4,286.2 164.7,285.8 L111.3,255.3 C110.6,254.9 110,253.9 110,253.1 L110,192.1 C110,191.3 110.6,190.3 111.3,189.9 L164.7,159.4 C165,159.1 165.5,159 166,159 L166,159 Z" id="Shape-Copy"></path>
            <path d="M166,350 C166.5,350 167,350.1 167.3,350.3 L220.7,380.8 C221.4,381.2 222,382.2 222,383 L222,444 C222,444.8 221.4,445.8 220.7,446.2 L167.3,476.8 C166.6,477.2 165.4,477.2 164.7,476.8 L111.3,446.3 C110.6,445.9 110,444.9 110,444.1 L110,383.1 C110,382.3 110.6,381.3 111.3,380.9 L164.7,350.4 C165,350.1 165.5,350 166,350 L166,350 Z" id="Shape-Copy-5"></path>
            <path d="M166,541 C166.5,541 167,541.1 167.3,541.3 L220.7,571.8 C221.4,572.2 222,573.2 222,574 L222,635 C222,635.8 221.4,636.8 220.7,637.2 L167.3,667.8 C166.6,668.2 165.4,668.2 164.7,667.8 L111.3,637.3 C110.6,636.9 110,635.9 110,635.1 L110,574.1 C110,573.3 110.6,572.3 111.3,571.9 L164.7,541.4 C165,541.1 165.5,541 166,541 L166,541 Z" id="Shape-Copy-11"></path>
            <path d="M-2,64 C-1.5,64 -1,64.1 -0.7,64.3 L52.7,94.8 C53.4,95.2 54,96.2 54,97 L54,158 C54,158.8 53.4,159.8 52.7,160.2 L-0.7,190.7 C-1.4,191.1 -2.6,191.1 -3.3,190.7 L-56.7,160.2 C-57.4,159.8 -58,158.8 -58,158 L-58,97 C-58,96.2 -57.4,95.2 -56.7,94.8 L-3.3,64.3 C-3,64.1 -2.5,64 -2,64 L-2,64 Z" id="Shape"></path>
            <path d="M-2,255 C-1.5,255 -1,255.1 -0.7,255.3 L52.7,285.8 C53.4,286.2 54,287.2 54,288 L54,349 C54,349.8 53.4,350.8 52.7,351.2 L-0.7,381.7 C-1.4,382.1 -2.6,382.1 -3.3,381.7 L-56.7,351.2 C-57.4,350.8 -58,349.8 -58,349 L-58,288 C-58,287.2 -57.4,286.2 -56.7,285.8 L-3.3,255.3 C-3,255.1 -2.5,255 -2,255 L-2,255 Z" id="Shape-Copy-6"></path>
            <path d="M-2,446 C-1.5,446 -1,446.1 -0.7,446.3 L52.7,476.8 C53.4,477.2 54,478.2 54,479 L54,540 C54,540.8 53.4,541.8 52.7,542.2 L-0.7,572.7 C-1.4,573.1 -2.6,573.1 -3.3,572.7 L-56.7,542.2 C-57.4,541.8 -58,540.8 -58,540 L-58,479 C-58,478.2 -57.4,477.2 -56.7,476.8 L-3.3,446.3 C-3,446.1 -2.5,446 -2,446 L-2,446 Z" id="Shape-Copy-12"></path>
            <path d="M110,64 C110.5,64 111,64.1 111.3,64.3 L164.7,94.8 C165.4,95.2 166,96.2 166,97 L166,158 C166,158.8 165.4,159.8 164.7,160.2 L111.3,190.7 C110.6,191.1 109.4,191.1 108.7,190.7 L55.3,160.2 C54.6,159.8 54,158.8 54,158 L54,97 C54,96.2 54.6,95.2 55.3,94.8 L108.7,64.3 C109,64.1 109.5,64 110,64 L110,64 Z" id="Shape-Copy-2"></path>
            <path d="M110,255 C110.5,255 111,255.1 111.3,255.3 L164.7,285.8 C165.4,286.2 166,287.2 166,288 L166,349 C166,349.8 165.4,350.8 164.7,351.2 L111.3,381.7 C110.6,382.1 109.4,382.1 108.7,381.7 L55.3,351.2 C54.6,350.8 54,349.8 54,349 L54,288 C54,287.2 54.6,286.2 55.3,285.8 L108.7,255.3 C109,255.1 109.5,255 110,255 L110,255 Z" id="Shape-Copy-7"></path>
            <path d="M110,446 C110.5,446 111,446.1 111.3,446.3 L164.7,476.8 C165.4,477.2 166,478.2 166,479 L166,540 C166,540.8 165.4,541.8 164.7,542.2 L111.3,572.7 C110.6,573.1 109.4,573.1 108.7,572.7 L55.3,542.2 C54.6,541.8 54,540.8 54,540 L54,479 C54,478.2 54.6,477.2 55.3,476.8 L108.7,446.3 C109,446.1 109.5,446 110,446 L110,446 Z" id="Shape-Copy-13"></path>
            <path d="M54,-32 C54.5,-32 55,-31.9 55.3,-31.7 L108.7,-1.2 C109.4,-0.8 110,0.2 110,1 L110,62 C110,62.8 109.4,63.8 108.7,64.2 L55.3,94.8 C54.6,95.2 53.4,95.2 52.7,94.8 L-0.7,64.3 C-1.4,63.9 -2,62.9 -2,62.1 L-2,1.1 C-2,0.3 -1.4,-0.7 -0.7,-1.1 L52.7,-31.6 C53,-31.9 53.5,-32 54,-32 L54,-32 Z" id="Shape"></path>
            <path d="M166,-32 C166.5,-32 167,-31.9 167.3,-31.7 L220.7,-1.2 C221.4,-0.8 222,0.2 222,1 L222,62 C222,62.8 221.4,63.8 220.7,64.2 L167.3,94.8 C166.6,95.2 165.4,95.2 164.7,94.8 L111.3,64.3 C110.6,63.9 110,62.9 110,62.1 L110,1.1 C110,0.3 110.6,-0.7 111.3,-1.1 L164.7,-31.6 C165,-31.9 165.5,-32 166,-32 L166,-32 Z" id="Shape-Copy-3"></path>
            <path d="M278,159 C278.5,159 279,159.1 279.3,159.3 L332.7,189.8 C333.4,190.2 334,191.2 334,192 L334,253 C334,253.8 333.4,254.8 332.7,255.2 L279.3,285.8 C278.6,286.2 277.4,286.2 276.7,285.8 L223.3,255.3 C222.6,254.9 222,253.9 222,253.1 L222,192.1 C222,191.3 222.6,190.3 223.3,189.9 L276.7,159.4 C277,159.1 277.5,159 278,159 L278,159 Z" id="Shape"></path>
            <path d="M278,350 C278.5,350 279,350.1 279.3,350.3 L332.7,380.8 C333.4,381.2 334,382.2 334,383 L334,444 C334,444.8 333.4,445.8 332.7,446.2 L279.3,476.8 C278.6,477.2 277.4,477.2 276.7,476.8 L223.3,446.3 C222.6,445.9 222,444.9 222,444.1 L222,383.1 C222,382.3 222.6,381.3 223.3,380.9 L276.7,350.4 C277,350.1 277.5,350 278,350 L278,350 Z" id="Shape-Copy-8"></path>
            <path d="M278,541 C278.5,541 279,541.1 279.3,541.3 L332.7,571.8 C333.4,572.2 334,573.2 334,574 L334,635 C334,635.8 333.4,636.8 332.7,637.2 L279.3,667.8 C278.6,668.2 277.4,668.2 276.7,667.8 L223.3,637.3 C222.6,636.9 222,635.9 222,635.1 L222,574.1 C222,573.3 222.6,572.3 223.3,571.9 L276.7,541.4 C277,541.1 277.5,541 278,541 L278,541 Z" id="Shape-Copy-14"></path>
            <path d="M222,64 C222.5,64 223,64.1 223.3,64.3 L276.7,94.8 C277.4,95.2 278,96.2 278,97 L278,158 C278,158.8 277.4,159.8 276.7,160.2 L223.3,190.7 C222.6,191.1 221.4,191.1 220.7,190.7 L167.3,160.2 C166.6,159.8 166,158.8 166,158 L166,97 C166,96.2 166.6,95.2 167.3,94.8 L220.7,64.3 C221,64.1 221.5,64 222,64 L222,64 Z" id="Shape"></path>
            <path d="M334,64 C334.5,64 335,64.1 335.3,64.3 L388.7,94.8 C389.4,95.2 390,96.2 390,97 L390,158 C390,158.8 389.4,159.8 388.7,160.2 L335.3,190.7 C334.6,191.1 333.4,191.1 332.7,190.7 L279.3,160.2 C278.6,159.8 278,158.8 278,158 L278,97 C278,96.2 278.6,95.2 279.3,94.8 L332.7,64.3 C333,64.1 333.5,64 334,64 L334,64 Z" id="Shape-Copy-19"></path>
            <path d="M222,255 C222.5,255 223,255.1 223.3,255.3 L276.7,285.8 C277.4,286.2 278,287.2 278,288 L278,349 C278,349.8 277.4,350.8 276.7,351.2 L223.3,381.7 C222.6,382.1 221.4,382.1 220.7,381.7 L167.3,351.2 C166.6,350.8 166,349.8 166,349 L166,288 C166,287.2 166.6,286.2 167.3,285.8 L220.7,255.3 C221,255.1 221.5,255 222,255 L222,255 Z" id="Shape-Copy-9"></path>
            <path d="M334,255 C334.5,255 335,255.1 335.3,255.3 L388.7,285.8 C389.4,286.2 390,287.2 390,288 L390,349 C390,349.8 389.4,350.8 388.7,351.2 L335.3,381.7 C334.6,382.1 333.4,382.1 332.7,381.7 L279.3,351.2 C278.6,350.8 278,349.8 278,349 L278,288 C278,287.2 278.6,286.2 279.3,285.8 L332.7,255.3 C333,255.1 333.5,255 334,255 L334,255 Z" id="Shape-Copy-20"></path>
            <path d="M222,446 C222.5,446 223,446.1 223.3,446.3 L276.7,476.8 C277.4,477.2 278,478.2 278,479 L278,540 C278,540.8 277.4,541.8 276.7,542.2 L223.3,572.7 C222.6,573.1 221.4,573.1 220.7,572.7 L167.3,542.2 C166.6,541.8 166,540.8 166,540 L166,479 C166,478.2 166.6,477.2 167.3,476.8 L220.7,446.3 C221,446.1 221.5,446 222,446 L222,446 Z" id="Shape-Copy-15"></path>
            <path d="M334,446 C334.5,446 335,446.1 335.3,446.3 L388.7,476.8 C389.4,477.2 390,478.2 390,479 L390,540 C390,540.8 389.4,541.8 388.7,542.2 L335.3,572.7 C334.6,573.1 333.4,573.1 332.7,572.7 L279.3,542.2 C278.6,541.8 278,540.8 278,540 L278,479 C278,478.2 278.6,477.2 279.3,476.8 L332.7,446.3 C333,446.1 333.5,446 334,446 L334,446 Z" id="Shape-Copy-21"></path>
            <path d="M278,-32 C278.5,-32 279,-31.9 279.3,-31.7 L332.7,-1.2 C333.4,-0.8 334,0.2 334,1 L334,62 C334,62.8 333.4,63.8 332.7,64.2 L279.3,94.8 C278.6,95.2 277.4,95.2 276.7,94.8 L223.3,64.3 C222.6,63.9 222,62.9 222,62.1 L222,1.1 C222,0.3 222.6,-0.7 223.3,-1.1 L276.7,-31.6 C277,-31.9 277.5,-32 278,-32 L278,-32 Z" id="Shape"></path>
        </g>
    </g>
</svg>