<?xml version="1.0" encoding="UTF-8"?>
<svg width="545px" height="608px" viewBox="0 0 545 608" version="1.1" xmlns="http://www.w3.org/2000/svg" xmlns:xlink="http://www.w3.org/1999/xlink">
    <!-- Generator: Sketch 43.1 (39012) - http://www.bohemiancoding.com/sketch -->
    <title>Slice</title>
    <desc>Created with Sketch.</desc>
    <defs></defs>
    <g id="Page-1" stroke="none" stroke-width="1" fill="none" fill-rule="evenodd">
        <polygon id="Shape" stroke="#1F1F1F" stroke-width="2" fill="#1F1F1F" points="194.556455 67.8731151 116.704303 67.8731151 77.7782273 0.436557558 116.704303 -67 194.556455 -67 233.48253 0.436557558"></polygon>
        <polygon id="Shape" stroke="#1F1F1F" stroke-width="2" fill="#1F1F1F" points="428.112909 67.8731151 350.260758 67.8731151 311.334682 0.436557558 350.260758 -67 428.112909 -67 467.038985 0.436557558"></polygon>
        <polygon id="Shape" stroke="#1F1F1F" stroke-width="2" fill="#1F1F1F" points="-0.073924237 0.436557558 77.7782273 0.436557558 116.704303 67.8731151 77.7782273 135.221405 -0.073924237 135.221405 -39 67.8731151"></polygon>
        <polygon id="Shape" stroke="#1F1F1F" stroke-width="2" fill="#1F1F1F" points="233.48253 0.436557558 311.334682 0.436557558 350.260758 67.8731151 311.334682 135.221405 233.48253 135.221405 194.556455 67.8731151"></polygon>
        <polygon id="Shape" stroke="#1F1F1F" stroke-width="2" fill="#1F1F1F" points="467.038985 0.436557558 544.891136 0.436557558 583.817212 67.8731151 544.891136 135.221405 467.038985 135.221405 428.112909 67.8731151"></polygon>
        <polygon id="Shape" stroke="#1F1F1F" stroke-width="2" fill="#1F1F1F" points="194.556455 202.657962 116.704303 202.657962 77.7782273 135.221405 116.704303 67.8731151 194.556455 67.8731151 233.48253 135.221405"></polygon>
        <polygon id="Shape" stroke="#1F1F1F" stroke-width="2" fill="#1F1F1F" points="428.112909 202.657962 350.260758 202.657962 311.334682 135.221405 350.260758 67.8731151 428.112909 67.8731151 467.038985 135.221405"></polygon>
        <polygon id="Shape" stroke="#1F1F1F" stroke-width="2" fill="#1F1F1F" points="-0.073924237 135.221405 77.7782273 135.221405 116.704303 202.657962 77.7782273 270.09452 -0.073924237 270.09452 -39 202.657962"></polygon>
        <polygon id="Shape" stroke="#1F1F1F" stroke-width="2" fill="#1F1F1F" points="233.48253 135.221405 311.334682 135.221405 350.260758 202.657962 311.334682 270.09452 233.48253 270.09452 194.556455 202.657962"></polygon>
        <polygon id="Shape" stroke="#1F1F1F" stroke-width="2" fill="#1F1F1F" points="467.038985 135.221405 544.891136 135.221405 583.817212 202.657962 544.891136 270.09452 467.038985 270.09452 428.112909 202.657962"></polygon>
        <polygon id="Shape" stroke="#1F1F1F" stroke-width="2" fill="#1F1F1F" points="194.556455 337.531078 116.704303 337.531078 77.7782273 270.09452 116.704303 202.657962 194.556455 202.657962 233.48253 270.09452"></polygon>
        <polygon id="Shape" stroke="#1F1F1F" stroke-width="2" fill="#1F1F1F" points="428.112909 337.531078 350.260758 337.531078 311.334682 270.09452 350.260758 202.657962 428.112909 202.657962 467.038985 270.09452"></polygon>
        <polygon id="Shape" stroke="#1F1F1F" stroke-width="2" fill="#1F1F1F" points="-0.073924237 270.09452 77.7782273 270.09452 116.704303 337.531078 77.7782273 404.879367 -0.073924237 404.879367 -39 337.531078"></polygon>
        <polygon id="Shape" stroke="#1F1F1F" stroke-width="2" fill="#1F1F1F" points="233.48253 270.09452 311.334682 270.09452 350.260758 337.531078 311.334682 404.879367 233.48253 404.879367 194.556455 337.531078"></polygon>
        <polygon id="Shape" stroke="#1F1F1F" stroke-width="2" fill="#1F1F1F" points="467.038985 270.09452 544.891136 270.09452 583.817212 337.531078 544.891136 404.879367 467.038985 404.879367 428.112909 337.531078"></polygon>
        <polygon id="Shape" stroke="#1F1F1F" stroke-width="2" fill="#1F1F1F" points="194.556455 472.315925 116.704303 472.315925 77.7782273 404.879367 116.704303 337.531078 194.556455 337.531078 233.48253 404.879367"></polygon>
        <polygon id="Shape" stroke="#1F1F1F" stroke-width="2" fill="#1F1F1F" points="428.112909 472.315925 350.260758 472.315925 311.334682 404.879367 350.260758 337.531078 428.112909 337.531078 467.038985 404.879367"></polygon>
        <polygon id="Shape" stroke="#1F1F1F" stroke-width="2" fill="#1F1F1F" points="-0.073924237 404.879367 77.7782273 404.879367 116.704303 472.315925 77.7782273 539.752483 -0.073924237 539.752483 -39 472.315925"></polygon>
        <polygon id="Shape" stroke="#1F1F1F" stroke-width="2" fill="#1F1F1F" points="233.48253 404.879367 311.334682 404.879367 350.260758 472.315925 311.334682 539.752483 233.48253 539.752483 194.556455 472.315925"></polygon>
        <polygon id="Shape" stroke="#1F1F1F" stroke-width="2" fill="#1F1F1F" points="467.038985 404.879367 544.891136 404.879367 583.817212 472.315925 544.891136 539.752483 467.038985 539.752483 428.112909 472.315925"></polygon>
        <polygon id="Shape" stroke="#1F1F1F" stroke-width="2" fill="#1F1F1F" points="194.556455 607.18904 116.704303 607.18904 77.7782273 539.752483 116.704303 472.315925 194.556455 472.315925 233.48253 539.752483"></polygon>
        <polygon id="Shape" stroke="#1F1F1F" stroke-width="2" fill="#1F1F1F" points="428.112909 607.18904 350.260758 607.18904 311.334682 539.752483 350.260758 472.315925 428.112909 472.315925 467.038985 539.752483"></polygon>
        <polygon id="Shape" stroke="#1F1F1F" stroke-width="2" fill="#1F1F1F" points="0.10261125 539.929018 77.9547628 539.929018 116.880839 607.277308 77.9547628 674.713865 0.10261125 674.713865 -38.8234645 607.277308"></polygon>
        <polygon id="Shape" stroke="#1F1F1F" stroke-width="2" fill="#1F1F1F" points="233.48253 539.752483 311.334682 539.752483 350.260758 607.18904 311.334682 674.53733 233.48253 674.53733 194.556455 607.18904"></polygon>
        <polygon id="Shape" stroke="#1F1F1F" stroke-width="2" fill="#1F1F1F" points="467.038985 539.752483 544.891136 539.752483 583.817212 607.18904 544.891136 674.53733 467.038985 674.53733 428.112909 607.18904"></polygon>
    </g>
</svg>