<?xml version="1.0" encoding="UTF-8"?>
<svg width="545px" height="1010px" viewBox="0 0 545 1010" version="1.1" xmlns="http://www.w3.org/2000/svg" xmlns:xlink="http://www.w3.org/1999/xlink">
    <!-- Generator: Sketch 43.1 (39012) - http://www.bohemiancoding.com/sketch -->
    <title>Slice</title>
    <desc>Created with Sketch.</desc>
    <defs></defs>
    <g id="Page-1" stroke="none" stroke-width="1" fill="none" fill-rule="evenodd">
        <polygon id="Shape-Copy" stroke="#1F1F1F" stroke-width="2" fill="#1F1F1F" points="194.778228 740.873116 116.926076 740.873116 78 673.436558 116.926076 606 194.778228 606 233.704303 673.436558"></polygon>
        <polygon id="Shape-Copy-2" stroke="#1F1F1F" stroke-width="2" fill="#1F1F1F" points="427.778227 740.873116 349.926076 740.873116 311 673.436558 349.926076 606 427.778227 606 466.704303 673.436558"></polygon>
        <polygon id="Shape-Copy-3" stroke="#1F1F1F" stroke-width="2" fill="#1F1F1F" points="-0.073924237 674 77.7782273 674 116.704303 741.436558 77.7782273 808.784847 -0.073924237 808.784847 -39 741.436558"></polygon>
        <polygon id="Shape-Copy-4" stroke="#1F1F1F" stroke-width="2" fill="#1F1F1F" points="233.926075 674 311.778227 674 350.704303 741.436558 311.778227 808.784847 233.926075 808.784847 195 741.436558"></polygon>
        <polygon id="Shape-Copy-5" stroke="#1F1F1F" stroke-width="2" fill="#1F1F1F" points="466.926076 674 544.778227 674 583.704303 741.436558 544.778227 808.784847 466.926076 808.784847 428 741.436558"></polygon>
        <polygon id="Shape-Copy-6" stroke="#1F1F1F" stroke-width="2" fill="#1F1F1F" points="194.778228 875.784847 116.926076 875.784847 78 808.348289 116.926076 741 194.778228 741 233.704303 808.348289"></polygon>
        <polygon id="Shape-Copy-7" stroke="#1F1F1F" stroke-width="2" fill="#1F1F1F" points="427.778227 875.784847 349.926076 875.784847 311 808.348289 349.926076 741 427.778227 741 466.704303 808.348289"></polygon>
        <polygon id="Shape-Copy-8" stroke="#1F1F1F" stroke-width="2" fill="#1F1F1F" points="-0.073924237 808 77.7782273 808 116.704303 875.436558 77.7782273 942.873116 -0.073924237 942.873116 -39 875.436558"></polygon>
        <polygon id="Shape-Copy-9" stroke="#1F1F1F" stroke-width="2" fill="#1F1F1F" points="233.926075 808 311.778227 808 350.704303 875.436558 311.778227 942.873116 233.926075 942.873116 195 875.436558"></polygon>
        <polygon id="Shape-Copy-10" stroke="#1F1F1F" stroke-width="2" fill="#1F1F1F" points="466.926076 808 544.778227 808 583.704303 875.436558 544.778227 942.873116 466.926076 942.873116 428 875.436558"></polygon>
        <polygon id="Shape" stroke="#1F1F1F" stroke-width="2" fill="#1F1F1F" points="194.778228 604.873115 116.926076 604.873115 78 537.436558 116.926076 470 194.778228 470 233.704303 537.436558"></polygon>
        <polygon id="Shape-Copy-11" stroke="#1F1F1F" stroke-width="2" fill="#1F1F1F" points="194.778228 1010.87311 116.926076 1010.87311 78 943.436558 116.926076 876 194.778228 876 233.704303 943.436558"></polygon>
        <polygon id="Shape" stroke="#1F1F1F" stroke-width="2" fill="#1F1F1F" points="427.778227 604.873115 349.926076 604.873115 311 537.436558 349.926076 470 427.778227 470 466.704303 537.436558"></polygon>
        <polygon id="Shape-Copy-12" stroke="#1F1F1F" stroke-width="2" fill="#1F1F1F" points="427.778227 1010.87311 349.926076 1010.87311 311 943.436558 349.926076 876 427.778227 876 466.704303 943.436558"></polygon>
        <polygon id="Shape" stroke="#1F1F1F" stroke-width="2" fill="#1F1F1F" points="-0.07392425 538 77.7782273 538 116.704303 605.34829 77.7782273 672.784847 -0.07392425 672.784847 -39 605.34829"></polygon>
        <polygon id="Shape-Copy-13" stroke="#1F1F1F" stroke-width="2" fill="#1F1F1F" points="-0.07392425 943 77.7782273 943 116.704303 1010.34829 77.7782273 1077.78485 -0.07392425 1077.78485 -39 1010.34829"></polygon>
        <polygon id="Shape" stroke="#1F1F1F" stroke-width="2" fill="#1F1F1F" points="233.926075 538 311.778227 538 350.704303 605.436557 311.778227 672.784847 233.926075 672.784847 195 605.436557"></polygon>
        <polygon id="Shape-Copy-14" stroke="#1F1F1F" stroke-width="2" fill="#1F1F1F" points="233.926075 943 311.778227 943 350.704303 1010.43656 311.778227 1077.78485 233.926075 1077.78485 195 1010.43656"></polygon>
        <polygon id="Shape" stroke="#1F1F1F" stroke-width="2" fill="#1F1F1F" points="466.926076 538 544.778227 538 583.704303 605.436557 544.778227 672.784847 466.926076 672.784847 428 605.436557"></polygon>
        <polygon id="Shape-Copy-15" stroke="#1F1F1F" stroke-width="2" fill="#1F1F1F" points="466.926076 943 544.778227 943 583.704303 1010.43656 544.778227 1077.78485 466.926076 1077.78485 428 1010.43656"></polygon>
    </g>
</svg>