<?xml version="1.0" encoding="UTF-8"?>
<svg width="127px" height="225px" viewBox="0 0 127 225" version="1.1" xmlns="http://www.w3.org/2000/svg" xmlns:xlink="http://www.w3.org/1999/xlink">
    <!-- Generator: Sketch 43.1 (39012) - http://www.bohemiancoding.com/sketch -->
    <title>dan_powell_profile copy 3</title>
    <desc>Created with Sketch.</desc>
    <defs></defs>
    <g id="Home" stroke="none" stroke-width="1" fill="none" fill-rule="evenodd">
        <g id="dan_powell_profile-copy-3" transform="translate(106.000000, 112.500000) rotate(-90.000000) translate(-106.000000, -112.500000) translate(-6.500000, 5.500000)">
            <g id="base" transform="translate(0.546120, 0.466849)" fill-rule="nonzero">
                <path d="M102.167627,171.91726 C101.876053,171.91726 101.642794,171.800548 101.467849,171.567123 C101.292905,171.275342 101.23459,170.925205 101.409534,170.633425 C102.750776,168.182466 100.943016,165.673151 100.184922,164.797808 C98.6687361,165.147945 94.1201774,166.548493 94.3534368,170.4 C94.3534368,170.808493 94.1201774,171.15863 93.7702882,171.275342 C93.6536585,171.275342 93.5953437,171.333699 93.478714,171.333699 C93.1871397,171.333699 92.8955654,171.15863 92.7206208,170.925205 C92.3707317,170.341644 89.5716186,165.731507 88.5219512,163.513973 C86.6558758,164.15589 81.6991131,166.198356 81.6991131,170.4 C81.6991131,170.750137 81.4658537,171.100274 81.1159645,171.216986 C80.9993348,171.275342 80.94102,171.275342 80.8243902,171.275342 C80.5911308,171.275342 80.2995565,171.15863 80.124612,170.983562 L73.3600887,162.755342 C71.0858093,167.949041 63.6215078,168.007397 63.2716186,168.007397 C62.9217295,168.007397 62.5718404,167.773973 62.4552106,167.482192 C62.3385809,167.132055 62.3968958,166.781918 62.6884701,166.548493 C64.9044346,164.447671 64.8461197,161.529863 64.4379157,159.487397 C63.6215078,155.34411 60.5891353,151.609315 58.3148559,150.733973 C58.1399113,150.675616 57.9649667,150.61726 57.848337,150.61726 C57.7317073,150.61726 57.4984479,150.675616 57.2651885,150.909041 C55.8656319,152.484658 55.9239468,158.553699 56.2738359,161.996712 C56.3321508,162.346849 56.1572062,162.63863 55.8656319,162.813699 C55.7490022,162.930411 55.5740576,162.930411 55.3991131,162.930411 C55.2241685,162.930411 55.1075388,162.872055 54.9325942,162.813699 C48.9844789,159.13726 47.4099778,150.675616 46.7101996,144.606575 C46.3019956,141.046849 44.7858093,139.763014 43.4445676,139.763014 C42.5698448,139.763014 41.7534368,140.229863 41.286918,141.046849 C37.204878,147.816164 27.7578714,147.874521 27.3496674,147.874521 C26.9997783,147.874521 26.6498891,147.641096 26.5332594,147.290959 C26.4166297,146.940822 26.5332594,146.532329 26.8248337,146.298904 C31.8982262,142.389041 35.1638581,135.503014 34.4640798,132.410137 C34.2308204,131.476438 33.7059867,130.951233 32.8312639,130.776164 C32.364745,130.659452 31.8982262,130.659452 31.4317073,130.659452 C24.1423503,130.659452 16.0949002,141.280274 16.0365854,141.33863 C15.8616408,141.572055 15.6283814,141.688767 15.3368071,141.688767 C15.2784922,141.688767 15.1618625,141.688767 15.1035477,141.630411 C14.7536585,141.513699 14.5203991,141.221918 14.4620843,140.871781 C13.9372506,136.786849 17.0279379,128.967123 19.5354767,122.723014 C20.7017738,119.863562 22.1013304,116.303836 22.2179601,115.195068 C22.0430155,115.136712 21.868071,115.136712 21.6931264,115.136712 C18.9523282,115.136712 14.1121951,120.096986 12.4210643,122.02274 C12.2461197,122.197808 12.0128603,122.314521 11.7796009,122.314521 C11.6629712,122.314521 11.6046563,122.314521 11.4880266,122.256164 C11.1381375,122.139452 10.904878,121.847671 10.904878,121.497534 C10.6716186,117.412603 14.2871397,109.067671 16.6780488,103.523836 L17.3778271,101.948219 C12.3044346,105.858082 2.39090909,109.417808 1.92439024,109.592877 C1.92439024,109.709589 1.86607539,109.709589 1.74944568,109.709589 C1.39955654,109.709589 1.04966741,109.476164 0.933037694,109.126027 C0.758093126,108.659178 0.99135255,108.192329 1.4578714,108.01726 C9.9135255,104.924384 16.6197339,89.2849315 22.0430155,76.7967123 C25.483592,68.8019178 28.1660754,62.4994521 30.731929,60.9238356 C33.4727273,59.1731507 35.6886918,58.2394521 37.2631929,58.0643836 L36.7383592,56.8389041 C34.6390244,51.9953425 32.0731707,46.1013699 38.2545455,31.9791781 C38.3711752,31.6290411 38.7210643,31.4539726 39.0709534,31.4539726 L39.3042129,31.4539726 C39.7124169,31.5706849 40.0039911,31.9208219 39.9456763,32.3876712 C39.7124169,35.1887671 39.654102,43.0084932 42.2199557,45.809589 C42.8614191,46.509863 43.5611973,46.8016438 44.494235,46.8016438 C45.1940133,46.8016438 45.9521064,46.6265753 46.8268293,46.2180822 C48.2847007,45.5761644 51.4920177,44.0589041 51.7252772,41.7246575 C51.9002217,39.9156164 50.1507761,37.5813699 46.6518847,35.0720548 C46.3019956,34.780274 46.1853659,34.3134247 46.4186253,33.9049315 C46.4769401,33.7882192 48.1097561,31.3372603 53.2997783,31.3372603 C54.6993348,31.3372603 56.2738359,31.5123288 57.9066519,31.8624658 C58.9563193,32.0958904 59.9476718,32.3876712 60.8223947,32.6794521 C62.1053215,33.0879452 63.2133038,33.4380822 64.2629712,33.4380822 C65.2543237,33.4380822 66.2456763,33.0879452 67.2370288,32.3876712 C68.0534368,31.8041096 68.1700665,31.1038356 68.5199557,29.469863 C69.1031042,26.5520548 70.0944568,21.650137 77.1505543,13.1884932 C77.3254989,12.9550685 77.5587583,12.8967123 77.8503326,12.8967123 C77.9669623,12.8967123 78.083592,12.8967123 78.2002217,12.9550685 C78.5501109,13.130137 78.7833703,13.480274 78.7250554,13.830411 C78.2585366,18.090411 78.083592,24.6846575 79.1915743,25.9684932 C79.2498891,26.0268493 79.2498891,26.0268493 79.308204,26.0268493 C79.3665188,26.0268493 79.7747228,25.9684932 80.6494457,24.9180822 C80.7660754,24.8013699 91.845898,12.0213699 95.4031042,12.0213699 L95.6363636,12.0213699 C96.1028825,12.079726 96.4527716,12.4882192 96.3944568,12.9550685 C96.3944568,13.0134247 96.3944568,13.0717808 96.3361419,13.1884932 C95.8696231,14.8808219 94.8782705,19.8410959 96.2778271,22.5254795 C97.0359202,24.0427397 98.3771619,25.8517808 100.184922,25.8517808 C100.651441,25.8517808 101.059645,25.7350685 101.409534,25.6183562 C100.826386,24.2761644 100.943016,22.6421918 101.759424,20.8915068 C104.266962,15.4060274 113.48071,9.10356164 124.502217,7.99479452 C138.556098,6.59424658 141.821729,3.96821918 144.504213,1.86739726 L144.679157,1.75068493 C144.854102,1.6339726 145.029047,1.57561644 145.203991,1.57561644 C145.320621,1.57561644 145.437251,1.57561644 145.55388,1.6339726 C145.845455,1.75068493 146.078714,2.04246575 146.078714,2.33424658 C146.078714,2.6260274 146.486918,7.64465753 141.530155,13.0717808 C145.029047,11.7879452 149.985809,10.5624658 155.75898,10.5624658 C160.949002,10.5624658 166.022395,11.6128767 170.804213,13.6553425 C171.212417,13.830411 171.387361,14.2389041 171.329047,14.6473973 C171.212417,15.0558904 170.862528,15.2893151 170.454324,15.2893151 L169.81286,15.2893151 C168.588248,15.2893151 165.555876,15.5227397 163.92306,17.5652055 C163.514856,18.090411 163.339911,18.4989041 163.398226,18.7906849 C163.748115,19.7827397 167.305322,20.4830137 170.162749,21.0082192 C174.886253,21.9419178 180.776053,23.0506849 183.516851,26.4353425 C183.750111,26.7271233 183.750111,27.0772603 183.633481,27.3690411 C183.458537,27.6608219 183.166962,27.8358904 182.875388,27.8358904 L182.233925,27.8358904 C179.026608,27.8358904 175.411086,28.1860274 173.195122,29.119726 C179.90133,30.4035616 199.961641,35.1887671 206.726164,47.2684932 C206.901109,47.6186301 206.842794,48.0271233 206.609534,48.3189041 C206.43459,48.4939726 206.20133,48.5523288 205.968071,48.5523288 C205.851441,48.5523288 205.676497,48.4939726 205.559867,48.4356164 C203.752106,47.4435616 198.562084,44.8758904 195.996231,44.8758904 C195.121508,44.8758904 195.063193,45.1676712 195.063193,45.2843836 C194.596674,47.4435616 200.836364,53.2791781 206.259645,58.4728767 C213.665632,65.4756164 221.304878,72.7117808 220.838359,77.380274 C220.780044,77.6720548 220.6051,77.9638356 220.313525,78.0805479 C220.196896,78.1389041 220.080266,78.1389041 219.963636,78.1389041 C219.788692,78.1389041 219.555432,78.0805479 219.438803,77.9638356 C217.747672,76.5632877 214.831929,74.6375342 213.723947,74.5791781 C213.723947,74.6958904 213.723947,75.0460274 213.898891,75.629589 C215.065188,77.2635616 225.386918,92.4945205 221.829712,117.704384 C221.771397,118.112877 221.421508,118.404658 221.013304,118.463014 L220.954989,118.463014 C220.546785,118.463014 220.196896,118.171233 220.138581,117.821096 C218.505765,111.693699 214.773614,101.948219 211.624612,101.948219 L211.566297,101.948219 C211.507982,103.290411 211.741242,107.200274 211.916186,111.285205 C212.907539,131.30137 213.665632,151.200822 210.574945,154.935616 C210.4,155.169041 210.166741,155.227397 209.875166,155.227397 L209.700222,155.227397 C209.350333,155.169041 209.117073,154.87726 209.058758,154.585479 C207.950776,150.092055 205.559867,141.33863 203.985366,138.012329 C203.460532,139.587945 202.702439,143.147671 202.002661,146.298904 C200.136585,155.110685 197.629047,167.132055 193.547007,171.041918 C193.372062,171.216986 193.138803,171.275342 192.963858,171.275342 C192.847228,171.275342 192.730599,171.216986 192.555654,171.15863 C192.205765,170.983562 192.03082,170.633425 192.089135,170.283288 C192.963858,161.938356 193.430377,149.275068 191.505987,144.606575 C190.164745,149.333425 186.374279,161.821644 183.050333,166.723562 C182.875388,166.956986 182.583814,167.132055 182.350554,167.132055 C182.233925,167.132055 182.17561,167.132055 182.05898,167.073699 C181.709091,166.956986 181.417517,166.548493 181.475831,166.198356 C181.767406,162.696986 181.534146,156.86137 179.726386,155.402466 C178.2102,156.161096 172.670288,159.662466 171.795565,170.516712 C171.795565,170.808493 171.620621,171.100274 171.329047,171.216986 C171.212417,171.275342 171.037472,171.333699 170.920843,171.333699 C170.804213,171.333699 170.629268,171.275342 170.512639,171.216986 C170.279379,171.100274 165.205987,168.41589 160.307539,159.954247 C159.257871,159.954247 156.458758,162.696986 156.458758,168.007397 C156.458758,168.41589 156.167184,168.766027 155.817295,168.824384 C155.75898,168.824384 155.64235,168.88274 155.584035,168.88274 C155.292461,168.88274 155.000887,168.707671 154.825942,168.41589 C152.551663,164.389315 149.694235,160.887945 148.761197,160.887945 C142.054989,161.004658 141.180266,167.015342 141.180266,167.248767 C141.121951,167.65726 140.830377,167.949041 140.422173,168.007397 L140.305543,168.007397 C139.955654,168.007397 139.66408,167.832329 139.489135,167.482192 C137.798004,163.86411 134.415743,162.055068 129.45898,162.055068 C122.927716,162.055068 116.338137,165.264658 115.580044,166.14 C115.055211,169.057808 106.307982,171.216986 102.517517,171.975616 C102.284257,171.91726 102.225942,171.91726 102.167627,171.91726 L102.167627,171.91726 Z" id="Shape" fill="#763B48"></path>
                <path d="M145.145676,2.33424658 C145.145676,2.33424658 145.845455,9.86219178 136.340133,16.2813699 C136.340133,16.2813699 144.504213,11.3794521 155.75898,11.3794521 C160.249224,11.3794521 165.264302,12.1964384 170.454324,14.4139726 L169.754545,14.4139726 C168.354989,14.4139726 165.031042,14.7057534 163.164967,17.04 C158.499778,22.8172603 177.452106,20.4246575 182.758758,26.9605479 L182.117295,26.9605479 C179.90133,26.9605479 172.845233,27.1356164 170.745898,29.5865753 C170.745898,29.5865753 197.978936,33.6131507 205.851441,47.6769863 C205.851441,47.6769863 199.203548,44.0005479 195.879601,44.0005479 C194.946563,44.0005479 194.246785,44.2923288 194.07184,45.1093151 C192.905543,50.7115068 220.663415,69.3271233 219.847007,77.2635616 C219.847007,77.2635616 215.415078,73.7038356 213.549002,73.7038356 C212.790909,73.7038356 212.44102,74.2873973 212.965854,76.0380822 C212.965854,76.0380822 224.512195,91.5608219 220.838359,117.587671 C220.838359,117.587671 216.464745,101.072877 211.507982,101.072877 C211.216408,101.072877 210.924834,101.131233 210.691574,101.247945 C209.933481,101.539726 214.24878,149.041644 209.816851,154.410411 C209.816851,154.410411 206.20133,139.879726 204.16031,136.728493 C204.043681,136.553425 203.985366,136.495068 203.868736,136.495068 C201.886031,136.495068 199.203548,164.389315 192.905543,170.458356 C192.905543,170.458356 195.471397,146.473973 191.097783,142.622466 C191.097783,142.622466 186.25765,160.421096 182.233925,166.315068 C182.233925,166.315068 183.108647,156.10274 179.668071,154.410411 C179.668071,154.410411 171.795565,157.328219 170.804213,170.458356 C170.804213,170.458356 165.789135,167.890685 160.949002,159.545753 C160.774058,159.253973 160.482483,159.078904 160.132594,159.078904 C158.499778,159.078904 155.409091,162.405205 155.409091,168.007397 C155.409091,168.007397 150.860532,160.012603 148.586253,160.012603 C141.005322,160.129315 140.130599,167.132055 140.130599,167.132055 C138.031264,162.63863 133.774279,161.179726 129.284035,161.179726 C122.169623,161.179726 114.647007,164.856164 114.530377,165.906575 C114.355432,168.590959 102.167627,171.100274 102.167627,171.100274 C104.150333,167.482192 100.476497,163.922466 100.476497,163.922466 C100.476497,163.922466 93.1288248,165.147945 93.478714,170.575068 C93.478714,170.575068 89.5133038,164.039178 89.0467849,162.521918 C89.0467849,162.521918 80.8243902,164.564384 80.8243902,170.458356 L73.0101996,160.946301 C71.8439024,167.132055 63.2716186,167.132055 63.2716186,167.132055 C68.6949002,161.996712 63.2716186,151.667671 58.6064302,149.916986 C58.3148559,149.800274 58.0815965,149.741918 57.848337,149.741918 C54.1161863,149.741918 55.3991131,162.113425 55.3991131,162.113425 C50.0341463,158.787123 48.3430155,151.259178 47.5849224,144.548219 C47.1184035,140.463288 45.2523282,138.946027 43.4445676,138.946027 C42.2782705,138.946027 41.1702882,139.587945 40.5288248,140.638356 C36.6800443,147.057534 27.3496674,147.057534 27.3496674,147.057534 C33.997561,141.980548 38.42949,131.126301 33.0062084,130.017534 C32.4813747,129.900822 31.956541,129.842466 31.4317073,129.842466 C23.6175166,129.842466 15.3368071,140.871781 15.3368071,140.871781 C14.4620843,134.102466 24.4922395,115.720274 22.9177384,114.728219 C22.5678492,114.494795 22.1013304,114.378082 21.6931264,114.378082 C17.9026608,114.378082 11.7796009,121.614247 11.7796009,121.614247 C11.4297118,115.661918 20.1769401,98.9720548 19.3022173,98.9720548 C19.1855876,98.9720548 19.010643,99.2054795 18.6607539,99.6139726 C15.2201774,104.049041 1.74944568,108.834247 1.74944568,108.834247 C15.9782705,103.640548 25.075388,65.4172603 31.140133,61.6241096 C34.813969,59.289863 36.7383592,58.8813699 37.6713969,58.8813699 C38.3128603,58.8813699 38.4878049,59.0564384 38.4878049,59.0564384 C36.7966741,53.8627397 31.7815965,48.8441096 39.0126386,32.3293151 C39.0126386,32.3293151 37.7297118,47.6769863 44.4359202,47.6769863 C45.1940133,47.6769863 46.127051,47.4435616 47.1184035,47.0350685 C49.7425721,45.809589 57.9066519,42.1331507 47.1184035,34.3717808 C47.1184035,34.3717808 48.4596452,32.2126027 53.2414634,32.2126027 C54.4660754,32.2126027 55.9239468,32.3876712 57.6733925,32.7378082 C60.297561,33.3213699 62.2802661,34.3134247 64.2046563,34.3134247 C65.3126386,34.3134247 66.4206208,34.0216438 67.6452328,33.1463014 C70.7359202,30.9871233 66.9454545,26.7271233 77.7337029,13.7720548 C77.7337029,13.7720548 76.2175166,26.9605479 79.1915743,26.9605479 C79.716408,26.9605479 80.3578714,26.5520548 81.2325942,25.56 C83.9733925,22.350411 92.7789357,12.9550685 95.3447894,12.9550685 L95.4614191,12.9550685 C95.4614191,12.9550685 93.6536585,19.3742466 95.4614191,22.9339726 C97.0359202,25.9684932 98.7853659,26.7271233 100.184922,26.7271233 C101.584479,26.7271233 102.575831,25.9684932 102.575831,25.9684932 C99.0186253,20.8915068 109.981818,10.3290411 124.560532,8.87013699 C139.139246,7.29452055 142.404878,4.55178082 145.145676,2.33424658 L145.145676,2.33424658 Z M145.145676,0.583561644 C144.737472,0.583561644 144.387583,0.700273973 144.037694,0.93369863 L143.862749,1.05041096 C141.296896,3.09287671 138.089579,5.60219178 124.327273,7.00273973 C112.547672,8.16986301 103.450554,14.8224658 100.884701,20.4246575 C100.184922,22.000274 99.951663,23.5175342 100.243237,24.9180822 L100.126608,24.9180822 C98.727051,24.9180822 97.6190687,23.3424658 96.9776053,22.0586301 C95.7529933,19.6660274 96.686031,14.8808219 97.094235,13.3635616 C97.1525499,13.2468493 97.1525499,13.0717808 97.1525499,12.9550685 C97.2108647,12.0213699 96.5110865,11.2043836 95.6363636,11.0876712 L95.3447894,11.0876712 C94.1784922,11.0876712 92.254102,11.729589 87.1807095,16.689863 C84.4399113,19.3158904 81.5241685,22.4671233 79.9496674,24.3345205 C79.7747228,24.509589 79.6580931,24.6846575 79.5414634,24.7430137 C79.0166297,22.9923288 79.0166297,18.3821918 79.5414634,13.830411 C79.5997783,13.0717808 79.1915743,12.3131507 78.491796,12.0213699 C78.2585366,11.9046575 78.0252772,11.9046575 77.7920177,11.9046575 C77.267184,11.9046575 76.8006652,12.1380822 76.4507761,12.5465753 C69.2780488,21.1832877 68.2866962,26.2019178 67.6452328,29.2364384 C67.2953437,30.870411 67.178714,31.2789041 66.7121951,31.6290411 C65.8374723,32.2126027 65.0793792,32.5043836 64.2629712,32.5043836 C63.3299335,32.5043836 62.2802661,32.1542466 61.0556541,31.8041096 C60.1809313,31.5123288 59.1895787,31.2205479 58.0815965,30.9871233 C56.3321508,30.6369863 54.7576497,30.4035616 53.2997783,30.4035616 C47.7015521,30.4035616 45.8937916,33.0879452 45.6605322,33.4380822 C45.1940133,34.1967123 45.3689579,35.2471233 46.127051,35.7723288 C50.4423503,38.8652055 50.9088692,40.7909589 50.8505543,41.6663014 C50.6756098,43.4753425 47.759867,44.8175342 46.4769401,45.4010959 L46.4186253,45.4010959 C45.6605322,45.7512329 45.0190687,45.9263014 44.4359202,45.9263014 C43.7944568,45.9263014 43.2696231,45.6928767 42.8031042,45.1676712 C40.7037694,42.8917808 40.4121951,36.1224658 40.7620843,32.4460274 C40.8203991,31.5706849 40.2955654,30.8120548 39.4208426,30.5786301 C39.3042129,30.520274 39.1292683,30.520274 39.0126386,30.520274 C38.3128603,30.520274 37.6713969,30.9287671 37.4381375,31.5706849 C31.140133,46.1013699 33.8809313,52.4621918 35.8636364,57.1306849 C35.9219512,57.1890411 35.9219512,57.3057534 35.9802661,57.3641096 C34.405765,57.7726027 32.4813747,58.7063014 30.2070953,60.1652055 C27.5829268,61.7991781 25.1920177,67.1679452 21.1682927,76.4465753 C16.1532151,88.1178082 9.27206208,104.22411 1.16629712,107.200274 C0.233259424,107.550411 -0.233259424,108.542466 0.116629712,109.417808 C0.349889135,110.118082 1.04966741,110.584932 1.74944568,110.584932 C1.92439024,110.584932 2.15764967,110.526575 2.33259424,110.468219 C3.38226164,110.118082 10.3217295,107.550411 15.5117517,104.399178 C12.537694,111.401918 9.97184035,117.879452 10.2050998,121.614247 C10.2634146,122.314521 10.7299335,122.956438 11.3713969,123.189863 C11.5463415,123.248219 11.721286,123.306575 11.9545455,123.306575 C12.4793792,123.306575 12.945898,123.073151 13.2957871,122.664658 C15.395122,120.213699 19.1272727,116.712329 21.3432373,116.128767 C20.8767184,117.646027 19.827051,120.213699 18.9523282,122.431233 C16.2698448,129.083836 13.2374723,136.670137 13.8206208,140.988493 C13.9372506,141.688767 14.4037694,142.272329 15.1035477,142.447397 C15.2784922,142.505753 15.395122,142.505753 15.5700665,142.505753 C16.0949002,142.505753 16.6197339,142.272329 16.9696231,141.805479 C19.1272727,138.946027 26.0084257,131.476438 31.6649667,131.476438 C32.0731707,131.476438 32.4813747,131.534795 32.8895787,131.593151 C33.4727273,131.709863 33.7059867,131.943288 33.8809313,132.526849 C34.5223947,135.327945 31.2567627,141.922192 26.5332594,145.481918 C25.9501109,145.948767 25.7168514,146.707397 25.9501109,147.407671 C26.1833703,148.107945 26.8831486,148.574795 27.5829268,148.574795 C27.9911308,148.574795 37.9046563,148.516438 42.2782705,141.33863 C42.5698448,140.813425 43.1529933,140.521644 43.6778271,140.521644 C44.8441242,140.521644 45.7771619,142.09726 46.0687361,144.548219 C46.7685144,150.792329 48.4013304,159.545753 54.6993348,163.39726 C54.9909091,163.572329 55.2824834,163.630685 55.6323725,163.630685 C55.9822616,163.630685 56.2738359,163.513973 56.5654102,163.338904 C57.1485588,162.988767 57.440133,162.346849 57.3818182,161.646575 C56.9152993,157.036438 57.2651885,152.076164 58.1399113,151.259178 L58.1982262,151.259178 C60.297561,152.017808 63.0383592,155.460822 63.7964523,159.370685 C64.1463415,161.179726 64.2046563,163.747397 62.2802661,165.614795 C61.7554324,166.081644 61.5804878,166.840274 61.8720621,167.540548 C62.1636364,168.182466 62.8050998,168.649315 63.504878,168.649315 C63.8547672,168.649315 70.7359202,168.590959 73.7682927,164.097534 L79.716408,171.333699 C80.0662971,171.742192 80.532816,171.975616 81.0576497,171.975616 C81.2325942,171.975616 81.4658537,171.91726 81.6407982,171.858904 C82.3405765,171.625479 82.8070953,170.925205 82.8070953,170.224932 C82.8070953,167.015342 86.3059867,165.206301 88.2886918,164.447671 C89.3966741,166.665205 91.437694,170.049863 92.1957871,171.275342 C92.5456763,171.800548 93.07051,172.092329 93.7119734,172.092329 C93.886918,172.092329 94.0618625,172.092329 94.2368071,172.033973 C94.9949002,171.800548 95.5197339,171.041918 95.4614191,170.224932 C95.2864745,167.365479 98.4354767,166.14 100.068293,165.673151 C100.768071,166.606849 101.759424,168.41589 100.826386,170.049863 C100.476497,170.633425 100.534812,171.392055 100.943016,171.91726 C101.292905,172.38411 101.817738,172.617534 102.342572,172.617534 C102.459202,172.617534 102.575831,172.617534 102.692461,172.559178 C102.809091,172.559178 105.841463,171.91726 108.990466,170.925205 C113.597339,169.466301 115.871619,168.065753 116.338137,166.315068 C117.562749,165.323014 123.56918,162.63863 129.45898,162.63863 C134.065854,162.63863 137.156541,164.272603 138.731042,167.540548 C139.022616,168.182466 139.66408,168.532603 140.305543,168.532603 L140.597118,168.532603 C141.355211,168.41589 141.938359,167.773973 142.054989,167.015342 C142.113304,166.490137 142.988027,161.588219 148.702882,161.413151 C149.694235,161.821644 152.201774,165.089589 154.126164,168.532603 C154.417738,169.057808 155.000887,169.407945 155.64235,169.407945 C155.817295,169.407945 155.933925,169.407945 156.108869,169.349589 C156.866962,169.174521 157.391796,168.474247 157.391796,167.65726 C157.391796,163.805753 159.082927,161.413151 160.015965,160.712877 C164.914412,168.88274 169.987805,171.567123 170.162749,171.683836 C170.396009,171.800548 170.687583,171.858904 170.979157,171.858904 C171.270732,171.858904 171.562306,171.800548 171.85388,171.625479 C172.378714,171.333699 172.670288,170.808493 172.728603,170.224932 C173.428381,160.946301 177.685366,157.269863 179.609756,156.161096 C180.601109,157.736712 181.009313,162.113425 180.659424,165.789863 C180.601109,166.606849 181.067627,167.307123 181.825721,167.598904 C182.000665,167.65726 182.233925,167.715616 182.408869,167.715616 C182.992018,167.715616 183.516851,167.423836 183.866741,166.956986 C186.665854,162.813699 189.814856,153.418356 191.564302,147.641096 C192.38071,152.834795 192.205765,161.996712 191.389357,169.991507 C191.331042,170.750137 191.680931,171.450411 192.38071,171.742192 C192.613969,171.858904 192.905543,171.91726 193.138803,171.91726 C193.605322,171.91726 194.013525,171.742192 194.363415,171.450411 C198.620399,167.365479 201.069623,155.63589 203.052328,146.240548 C203.460532,144.256438 203.927051,142.155616 204.335255,140.521644 C205.676497,144.314795 207.367627,150.442192 208.417295,154.585479 C208.592239,155.227397 209.058758,155.752603 209.758537,155.869315 C209.875166,155.869315 209.991796,155.927671 210.166741,155.927671 C210.691574,155.927671 211.158093,155.694247 211.507982,155.285753 C214.48204,151.667671 214.307095,136.32 213.024169,110.993425 C212.849224,107.783836 212.732594,104.749315 212.674279,102.940274 C213.607317,103.698904 215.065188,105.624658 216.756319,109.767945 C218.389135,113.736164 219.497118,117.76274 219.497118,117.821096 C219.730377,118.579726 220.37184,119.104932 221.188248,119.104932 L221.304878,119.104932 C222.121286,119.046575 222.821064,118.404658 222.937694,117.587671 C226.145011,94.8871233 218.214191,80.0646575 215.531707,75.9213699 C216.581375,76.5049315 217.922616,77.4386301 219.088914,78.3723288 C219.380488,78.6057534 219.788692,78.7808219 220.196896,78.7808219 C220.430155,78.7808219 220.663415,78.7224658 220.838359,78.6641096 C221.421508,78.4306849 221.829712,77.8471233 221.888027,77.2635616 C222.41286,72.5367123 216.348115,66.4093151 207.076053,57.6558904 C204.043681,54.7380822 201.127938,52.0536986 199.028603,49.6610959 C196.870953,47.2684932 196.287805,46.1013699 196.171175,45.5761644 L196.22949,45.5761644 C198.328825,45.5761644 202.935698,47.6769863 205.326608,49.0191781 C205.618182,49.1358904 205.909756,49.2526027 206.143016,49.2526027 C206.609534,49.2526027 207.076053,49.0775342 207.367627,48.7273973 C207.892461,48.1438356 208.009091,47.3268493 207.659202,46.6265753 C201.711086,36.0641096 185.966075,30.9287671 177.277162,28.8863014 C178.793348,28.6528767 180.542794,28.5361644 182.408869,28.5361644 L183.108647,28.5361644 C183.750111,28.5361644 184.391574,28.1860274 184.683149,27.5441096 C184.974723,26.9021918 184.916408,26.2019178 184.449889,25.6767123 C181.534146,22.0586301 175.469401,20.8915068 170.570953,19.9578082 C168.588248,19.5493151 165.439246,18.9657534 164.564523,18.3238356 C164.622838,18.2071233 164.681153,18.090411 164.856098,17.9153425 C166.255654,16.1646575 168.996452,15.989589 170.104435,15.989589 L170.804213,15.989589 C171.620621,15.989589 172.320399,15.4643836 172.495344,14.6473973 C172.728603,13.830411 172.262084,12.9550685 171.503991,12.6049315 C166.605543,10.5041096 161.415521,9.45369863 156.108869,9.45369863 C151.56031,9.45369863 147.536585,10.2123288 144.329268,11.1460274 C147.5949,6.36082192 147.303326,2.27589041 147.245011,1.98410959 C147.186696,1.34219178 146.778492,0.758630137 146.195344,0.525205479 C145.67051,0.641917808 145.378936,0.583561644 145.145676,0.583561644 L145.145676,0.583561644 Z" id="Shape" fill="#662938"></path>
                <path d="M107.007761,65.9424658 C105.258315,68.2767123 104.850111,82.9241096 106.016408,85.1416438 C106.016408,85.1416438 102.342572,71.4863014 97.094235,70.4942466 C94.1201774,69.9690411 92.7206208,73.2953425 91.3793792,75.979726 C90.1547672,78.4306849 91.5543237,83.0991781 89.3383592,86.7172603 C89.3383592,82.1654795 85.0813747,79.8312329 83.0403548,79.4227397 C80.4745011,82.6906849 81.6407982,84.0328767 81.1159645,86.7172603 C80.124612,91.5024658 84.6148559,109.534521 84.6148559,109.534521 C75.4011086,104.049041 76.8006652,85.8419178 73.1268293,88.1761644 C70.8525499,89.6350685 71.3190687,100.489315 71.3190687,100.489315 C71.3190687,100.489315 66.7121951,92.4361644 66.0707317,87.2424658 C66.2456763,88.9931507 66.4789357,95.0038356 62.4552106,101.656438 L60.0643016,90.0435616 C50.7339246,84.499726 40.1789357,87.5342466 40.1789357,97.3964384 C40.1789357,100.72274 39.4208426,107.492055 40.1789357,110.76 C46.8851441,139.763014 58.3731707,135.853151 64.4962306,130.250959 C73.8849224,146.240548 89.1634146,159.253973 112.839246,162.055068 L116.513082,162.405205 C116.396452,166.781918 117.562749,172.38411 119.078936,176.93589 C118.670732,177.110959 118.262528,177.344384 117.854324,177.519452 C112.897561,179.67863 90.0381375,179.620274 83.4485588,185.572603 C78.0252772,188.548767 72.3104213,194.092603 71.5523282,199.403014 C71.3190687,201.212055 71.3773836,205.005205 71.7855876,209.148493 L192.14745,212.066301 C192.847228,204.013151 191.331042,194.734521 185.149667,184.813973 C180.659424,177.694521 163.748115,176.469041 150.510643,175.476986 C150.510643,175.476986 146.253659,175.243562 141.938359,174.601644 C141.005322,170.341644 140.188914,164.972877 139.66408,160.829589 C160.715743,156.452877 175.294457,145.131781 178.2102,141.163562 C206.784479,102.531781 189.698226,80.8232877 188.29867,60.5153425 C187.890466,54.679726 184.158315,49.7778082 180.542794,45.2843836 C181.767406,58.9980822 176.344124,80.7649315 176.344124,80.7649315 C177.918625,55.6717808 166.313969,47.7353425 166.313969,47.7353425 C160.365854,53.4542466 168.588248,77.3219178 168.588248,77.3219178 C161.823725,70.8443836 160.132594,65.0671233 158.791353,60.1068493 C157.450111,55.1465753 155.059202,56.080274 154.301109,61.3906849 C153.251441,68.9186301 158.907982,82.9241096 140.713747,88.5263014 C140.713747,88.5263014 150.335698,81.3484932 142.579823,67.2846575 C141.413525,65.1838356 137.914634,60.8071233 135.523725,60.7487671 C128.001109,60.5736986 136.806652,83.6243836 136.398448,83.4493151 C122.986031,78.6641096 128.642572,61.0405479 121.586475,56.7805479 C120.186918,55.9052055 127.53459,71.6613699 114.180488,83.4493151 C114.180488,83.4493151 120.011973,64.8336986 113.888914,62.5578082 C112.081153,61.7991781 108.174058,64.4252055 107.007761,65.9424658 L107.007761,65.9424658 Z" id="Shape" stroke="#662938" stroke-width="3" fill="#F2DFBD" stroke-linecap="round" stroke-linejoin="round"></path>
            </g>
            <g id="eyes_normal" transform="translate(90.774279, 81.292877)">
                <path d="M65.0468404,11.8435616 C65.0468404,17.9335363 69.9418307,22.8319941 76.0274945,22.8319941 C82.1131582,22.8319941 87.0081486,17.9335363 87.0081486,11.8435616 C87.0081486,5.75358702 82.1131582,0.855129173 76.0274945,0.855129173 C70.0741278,0.855129173 65.0468404,5.75358702 65.0468404,11.8435616 Z" id="Shape" stroke="#979797" fill="#FFFFFF" fill-rule="nonzero"></path>
                <path d="M0,19.5088546 C0,26.4444572 5.56930693,32.0177093 12.5,32.0177093 C19.4306931,32.0177093 25,26.4444572 25,19.5088546 C25,12.5732521 19.4306931,7 12.5,7 C5.56930693,7 0,12.5732521 0,19.5088546 Z" id="Shape" stroke="#979797" fill="#FFFFFF" fill-rule="nonzero"></path>
                <circle id="Oval" fill="#000000" cx="11.2257206" cy="18.7071233" r="6"></circle>
                <circle id="Oval-Copy" fill="#000000" cx="76.2257206" cy="12.7071233" r="6"></circle>
            </g>
        </g>
    </g>
</svg>