<?xml version="1.0" encoding="UTF-8"?>
<svg width="700px" height="700px" viewBox="0 0 700 700" version="1.1" xmlns="http://www.w3.org/2000/svg" xmlns:xlink="http://www.w3.org/1999/xlink">
    <!-- Generator: Sketch 43.1 (39012) - http://www.bohemiancoding.com/sketch -->
    <title>Path 4 Copy</title>
    <desc>Created with Sketch.</desc>
    <defs></defs>
    <g id="Page-1" stroke="none" stroke-width="1" fill="none" fill-rule="evenodd" fill-opacity="0.600000024">
        <path d="M348.753679,455.040717 C292.772351,455.147852 182.250504,425.027376 231.049192,340.704187 C279.847881,256.380997 297.078539,250.664165 297.078539,210.646383 C297.078538,167.770188 205.206017,167.770188 176.497597,167.770188 C81.6167592,167.770188 106.161998,126.323194 87.5071346,42 C58.7931179,69.1549242 -44.557165,224.93845 53.0514357,224.93845 C150.660036,224.93845 260.197367,241.856315 205.206012,349.994027 C176.497593,406.447678 107.597401,490.770881 176.497593,505.062948 C245.397785,519.355015 263.496845,508.85385 274.106207,523.642646 C281.068336,533.347425 319.112586,651.978473 348.890853,657.77991 C350.715477,658.002011 351.171139,658.009431 351.624521,657.988059 C381.402774,651.978473 419.447025,533.347425 426.409154,523.642646 C437.018516,508.85385 455.117576,519.355015 524.017768,505.062948 C592.91796,490.770881 524.017768,406.447678 495.309349,349.994027 C440.317994,241.856315 549.855324,224.93845 647.463925,224.93845 C745.072526,224.93845 641.722243,69.1549242 613.008226,42 C594.353363,126.323194 618.898601,167.770188 524.017763,167.770188 C495.309344,167.770188 403.436822,167.770188 403.436822,210.646383 C403.436822,250.664165 420.66748,256.380997 469.466168,340.704187 C518.264857,425.027376 407.743009,455.147852 351.761681,455.040717 C351.132553,455.039513 349.382808,455.039513 348.753679,455.040717 Z" id="Path-4-Copy" fill="#000000"></path>
    </g>
</svg>