<?xml version="1.0" encoding="UTF-8" standalone="no"?>
<svg width="74px" height="55px" viewBox="0 0 74 55" version="1.1" xmlns="http://www.w3.org/2000/svg" xmlns:xlink="http://www.w3.org/1999/xlink" xmlns:sketch="http://www.bohemiancoding.com/sketch/ns">
    <!-- Generator: Sketch 3.2.2 (9983) - http://www.bohemiancoding.com/sketch -->
    <title>Group</title>
    <desc>Created with Sketch.</desc>
    <defs></defs>
    <g id="Page-1" stroke="none" stroke-width="1" fill="none" fill-rule="evenodd" sketch:type="MSPage">
        <g id="Group" sketch:type="MSLayerGroup" transform="translate(36.500000, 27.500000) rotate(-180.000000) translate(-36.500000, -27.500000) translate(-1.000000, -1.000000)" fill-opacity="0.1" fill="#000000">
            <path d="M73.3238333,7.28348714 C70.2029167,8.90188 67.2973333,10.5346586 64.6070833,12.1890157 C61.91825,13.8404957 59.6105,15.4761514 57.68525,17.0945443 C55.4256667,19.0510014 53.567,21.1398071 52.1035833,23.3667157 C50.6444167,25.5907471 49.3835833,28.4563814 48.3210833,31.9636186 L52.6036667,31.9636186 C56.7870833,31.9636186 59.7918333,33.0065829 61.6179167,35.0968271 C63.4454167,37.18851 64.35775,39.5132414 64.35775,42.0767757 C64.35775,45.3135614 63.1295,48.3992971 60.6715833,51.3325443 C58.2150833,54.26723 54.86325,55.7316957 50.61325,55.7316957 C46.0940833,55.7316957 42.75925,54.4513671 40.60025,51.8878329 C38.4426667,49.3271757 37.3631667,45.9537257 37.3631667,41.7746757 C37.3631667,36.3109814 38.5248333,31.3551029 40.8481667,26.9041629 C43.1743333,22.4532229 46.0955,18.4741343 49.6145,14.9683357 C53.0683333,11.5963243 56.6695,8.79686429 60.4236667,6.57283286 C64.175,4.34736286 67.4786667,2.45851857 70.33325,0.909177143 L73.3224167,7.28204857 L73.3238333,7.28348714 Z M36.4678333,7.28348714 C33.3469167,8.90188 30.4413333,10.5346586 27.7525,12.1890157 C25.0608333,13.8404957 22.7559167,15.4761514 20.82925,17.0945443 C18.5710833,19.0510014 16.7124167,21.1398071 15.2518333,23.3667157 C13.7898333,25.5907471 12.529,28.4563814 11.4665,31.9636186 L15.7490833,31.9636186 C19.9325,31.9636186 22.93725,33.0065829 24.7633333,35.0968271 C26.5908333,37.18851 27.5031667,39.5132414 27.5031667,42.0767757 C27.5031667,45.3135614 26.2749167,48.3992971 23.817,51.3325443 C21.3605,54.26723 18.0086667,55.7316957 13.7586667,55.7316957 C9.2395,55.7316957 5.90466667,54.4513671 3.74708333,51.8878329 C1.58666667,49.3286143 0.51,45.9551643 0.51,41.7761143 C0.51,36.31242 1.67166667,31.3565414 3.995,26.9056014 C6.31833333,22.4546614 9.24091667,18.4755729 12.7613333,14.9697743 C16.21375,11.5977629 19.8163333,8.79830286 23.5705,6.57427143 C27.3204167,4.34880143 30.6255,2.45995714 33.4800833,0.910615714 L36.46925,7.28348714 L36.4678333,7.28348714 Z" id="Shape" sketch:type="MSShapeGroup"></path>
        </g>
    </g>
</svg>