<svg width="74" height="56" viewBox="0 0 74 56" xmlns="http://www.w3.org/2000/svg"><g fill="none" fill-rule="evenodd"><path d="M51.758 5.063c-2.203 1.125-4.254 2.26-6.153 3.41-1.898 1.148-3.527 2.285-4.886 3.41-1.595 1.36-2.907 2.812-3.94 4.36-1.03 1.546-1.92 3.538-2.67 5.976h3.023c2.953 0 5.074.725 6.363 2.178 1.29 1.454 1.934 3.07 1.934 4.852 0 2.25-.867 4.395-2.602 6.434-1.734 2.04-4.1 3.058-7.1 3.058-3.19 0-5.544-.89-7.068-2.672-1.523-1.78-2.285-4.125-2.285-7.03 0-3.798.82-7.243 2.46-10.337 1.642-3.094 3.704-5.86 6.188-8.297 2.438-2.344 4.98-4.29 7.63-5.836 2.648-1.547 4.98-2.86 6.995-3.937l2.11 4.43zm-26.016 0c-2.203 1.125-4.254 2.26-6.152 3.41-1.9 1.148-3.527 2.285-4.887 3.41-1.594 1.36-2.906 2.812-3.937 4.36-1.032 1.546-1.922 3.538-2.672 5.976h3.023c2.953 0 5.074.725 6.363 2.178 1.29 1.454 1.934 3.07 1.934 4.852 0 2.25-.867 4.395-2.602 6.434-1.734 2.04-4.1 3.058-7.1 3.058-3.19 0-5.544-.89-7.067-2.672C1.12 34.29.36 31.945.36 29.04c0-3.798.82-7.243 2.46-10.337 1.64-3.094 3.703-5.86 6.188-8.297 2.437-2.344 4.98-4.29 7.63-5.836 2.647-1.547 4.98-2.86 6.995-3.937l2.11 4.43z" fill-opacity=".1" fill="#000"/></g></svg>