<?xml version="1.0" encoding="UTF-8" standalone="no"?>
<!DOCTYPE svg PUBLIC "-//W3C//DTD SVG 1.1//EN" "http://www.w3.org/Graphics/SVG/1.1/DTD/svg11.dtd">
<svg width="100%" height="100%" viewBox="0 0 590 381" version="1.1" xmlns="http://www.w3.org/2000/svg" xmlns:xlink="http://www.w3.org/1999/xlink" xml:space="preserve" xmlns:serif="http://www.serif.com/" style="fill-rule:evenodd;clip-rule:evenodd;">
    <rect x="0" y="0" width="589" height="380" style="fill:none;"/>
    <!-- Base -->
    <g>
        <path d="M240,369C240,369 250,329 256,329C263,329 266,373 258,371L240,369Z" style="fill:#1d1429;fill-rule:nonzero;stroke:#1d1429;stroke-width:3px;"/>
        <path d="M395,322C394,322 394,322 394,322C388,320 374,314 374,309C373,307 362,300 351,299C343,297 336,300 333,305C332,306 332.31,306 331,306C331,306 331,306 331,306.44C330,306.24 330,305 330,304C330,304 330,294 319,292C317,292 311,297 306,303C306,303 306,304 305,304C305,304 305,304.05 305.19,303C304,303 304.2,303 304.3,302.4C305,293 301,288 299,287C289,300 280,304 279,304C279,304 279,304 278.91,304C278.66,304 278,304 278,304C277,303 277,303 277,302C278,284 270,276 268,275C264,277 262,287 262,293C262,293 261,294 261,294C260,294 260,294 260,294C260,294.39 259,294 259,293C255,284 251,262 250,254C246.17,261 243,283 243,297C243,298 242.71,298 242,298C241,298 241,298 241,298C241,298 240,298 240,298C234.57,290.64 233,269 232,254C232,248 231,242 231,239C227.61,244 221,259 218,266C218,267 217,267 217,267C216,267 216,267 216,267C216,267 215,267.07 215.69,266C211.4,259 217,226 224,192.32C225.77,185.42 227,178 227,176C227,176 227,176 227,176C222,175 213,190 208,201C208,201 207,202 207,202C207,202 207,202 207,202C206,202 205,201 205,200C206,157 227,133 230,131C230,130 230,129 230,129C228,129 223,131 220.05,133C219,134.1 219,134 219,134C218,134 218.69,134 218,133C218,133 217,133 217,132C218,124 232,114 247,104C257,96.82 269,88 269,84C269.55,84 269,84 268,83C263,83 254,86 250,87C250,87 250,87 250,87C249,87.42 249,87 249,86C248,86 248,85 249,85C263,66.3 299,63 310,62C307,60 301,59 295,58C294,58 294,58 294,58C294,58 294,58 294,58C293.97,58 293,57 293,57C293,56 293.31,55 293,55C299,50 309.49,50 317,49C322,49 328,49 329,47C329,47 329,46 329,45C326,41.64 321.83,40 319,40C319,40 318,40 318,40C318,40 318,40 318,40C317,39 317,39 317,38C317,37 317,37.32 318,37C327,34 335,34 344.73,35C354.54,37 362,40 368,43C361,33 363,24 363,24C363,23 363,23.19 364,23.05C364,22 364,22 364,23C365,23 365.62,23 365,23L366,23C370,27 374,33 398,39C416,43 430,56 433,66C434,69 434,72 433,74C433,75 434,75 435,75C438,76 440,73 442,70C445,66 445,58 444,55C444,54 444,54 444,54C444,53 445,53 446,53C446,53.36 446.7,53.37 446,53C452,54 468,78 468,78C469,81 470,81 470,81C470,81 470,81 470,81C473,79 474,67.99 474,60C474,59 475,59.4 475,59C476,59 476,59.17 476,59C476,59 477,59 477,59C487,75 487,84 488,89C488.17,92 488,93 489,94.99C490,96 492,97 494,97C496,97.74 498,97 500,97C501,96 503.55,96 505.43,96.47C508,96 511,96 513,96.72C522,98 524,102.65 524,102C524,103 524,104 523,104C517,108 513,111 513,114C513,118 518,122 520,123C522,124 523,125 524,125C525,125 527,125 528,124C533,119 535,106 535,101C535,101 536,100.61 537,100C537,100 537,100 537,100C538,100.63 538,101.05 538,101C545.6,127 539,136 535,144C534,144 534,145.34 533,145C536,146 539.98,148 544,152C548,155 551,167 554.98,181C560,204 568,232.34 582,239C582,240 583,241 582,241.77C582,242 581.69,242 581,242C580,242.52 580,242 580,242C579.82,241 563,233 556,225C556,226 556,227 557,228C559,238 563.71,253 562,260.34C562,260 561,261 561,261C560,261 560,261 560,261C560,261 559,261 559,260C557,257 550,247.49 545,246C545,246 544,246 544,246C544,248 546,255 547,260C549,271 553,285 551,292C551,292 550,293 550.13,293C550,293 549.87,293 549,293C549,293 548,292 548,292C548,292 537,272.34 525,270.51C524.4,270 523,270 522,270C521,270 520.21,271 519.62,272C517,277 521.43,290 529.1,298C529,298 529,299 529.36,299C529,300 528,300 527,300C527,300 511,298 505,285C505,284 504,283 502,282C500,282 497,284 495,290C493.23,300 488,314 477,319C477,319 476,319.28 476,319.24C476,319 476,319 475.83,318C475,318 475,317 475,317C476.84,311 478,301 476.46,298C476,297 475,297 475,297C475,297 475,297 474,297.73C470,298 464,304 462,311C460,314.38 460,319 463,323C463,323 463.82,324 463,325C463,325 462,325 461,325C461,325 448,323.72 446,314L432,326C432,326 431,327.07 431,327C431,326 431,326 430,326C430,326 430,325 430,325C431.21,318 423,313 420,311C417,315 412,322 411,323C410,323 410.45,324 409,324C409,324 409,323 409,323C408,323 408.55,322 408,322C410,315 402,312 400,311C398,312 395,316.3 396.7,320C396,321 396,321 396,322C396,322 395,322 395,322" style="fill:#763b48;fill-rule:nonzero;"/>
        <path d="M365,21C364,21 364,21 363,21C362,21 362,22 361,23C361,24 360,31 364,40C359,37 352,35 344.95,34C335,32 326,33.37 318,35C316,36 315,37 315,38C315,40 317,41 318,41C318,41 318,41 318,41C318,41 318,41 319,41C321,41 325,42 327.91,46C328,46 328,46 328,47C326,47 321,48 317,48C309,48.66 298,49 292,54C291,55 291,56 291,57C292,58 293,59 294,59C294,59 294,59 294.4,59C294,59 294,59 295,59.83C298,60.3 301,60 304,61C288.78,63 260,67 248,84.16C247,85 247,86 248,87C248.51,88 249,88 250,88C250,89 251,88 251,88C255,87 264,84 267,85C267,85 267,85 267.91,85.28C267,86 266,87 262,91C257,94 252,98 246,102C228,115 216,124 216,132C216,133 216,134 217.75,135C218,135 218,135 218,135C219,135 220,135.57 220,135C223,133 225,132 227,131C221,138.33 204,161 204,200C204,202 205,203 206,203C206,203 206,203 207,203.71C208,203 209,203 210.25,201C210,201 213,195 216,188C220,182 223.79,179 225,178C225.02,181 223.99,186 222,192C214,234 210,260 214,267C214,268 215,268 216,268C216,268 216,268 217,268C218,268 219,268 219,267C222,260 226,250 230,244C230,247 230,250 230,254C231,270 233.1,291.19 239,299C239,299 240,300 241,300C241,300 242,300 242,300C243,299 244.6,298 244,297C245,283 247,268 249,259C251,269 254,286 258,294C258,295 259,295 260,295C260,295 261,295 261,295C262,295 263,294 263,293C264,286 265,279 268,277C270,279 277,286 276,302C276,303 276.5,304 277,305C277,305 278,305 278.69,305C279,305 279,305 280,305C280,305 289,302 300,289.74C301,291 303,295 302,302.18C302,303 303,304 304,305C304,305.48 305.09,305.55 305,305C306,305 307,305 308.14,304C312,299 317.37,294 319,293C328.78,295 328,303 328,304C328,306 329,307 331,307C331.23,307 331,307 331,307C332,308 333,307 334,306.66C337,301 343,299 351,300C361,302 370,308 372,310C373,313 376,316 384,319C389,322 394,324 394.26,324C394,324 394,324 394,324C395,324 396,324 397,323C398,322 398,321 398,320C396,317 399,314 400,313C403,314 408,317 407,321C406,323 407,324 408,325C409,325 409,325 409,325.52C410,325.67 411,325 412,324C414,322 418,317.42 420.79,313C423,315 429,319 428,325C428,326 429,327.57 430,328C430,328 430,328.44 431,328.49C432,328 432,328.36 433.66,327L445,316C449.53,325 461,327 461,327C462.99,327 464.19,326 464,325C465,324 465,323 464,322C461,318 462,314 463,311C465,305 471,300 475,299C475,299 475,299 475,299C475,299 476,301 475,308C474,312 473,316 473,317C473,318 473,319 474,320C475,320 475,320 476,320C476,320 477,320 477,320C489,315 494,301 497,290C498,286 500,284 502,284C503,284 504,285 504,286C510,299 526,302.08 527,302C528,302 530,301.73 530,300C531,299 531,298.05 530,297C523,289 519.21,277 521,273C521,272 521,271 522,271C523.58,271 524,271.89 524,271C534,273 544,287 547,293C547,294 548,294 549,294C549,294 550,294 550,294C551,294 552,293 552,292C554,285 551,271.84 548,259C547,255 546.71,251 546,248C549,250.09 555,256 558,261C558,262 559,262 560,263C560,263 561.04,263.05 561,262C562,262 563,261 563,260C565,254 562,242 559,230.12C567,236 578,242.82 579,243C580,243 580,243 580,244C582,244 583,243 583,242C584,241 584,239 582,238C569,231 562,202 556,181C551,164.47 549,154 545,151C541,148 538,146 536,145C536,145 536,144.94 536,144C540,137 547,127.34 540,101C539,100 538,99 537,99.06C537,99 537,99 536,99C535,99 534,100 534,101C533,108 531,119 527,122C526,123 525,123.91 524,123C523,123 522.64,123 521,122.39L521,122C519,121 514,118 514,114C515,113 516,110 524,106C525,105 526,103 525,102C525,101 523,96 513,95C511.13,94 508,94 505,94C503,95 501.63,95 500,95C497,95 496,96 494,95C493,95 491,95 490,93C489,93 489,92.46 489,89C489,84 488,75 478,59C478,58 477,57 476,57C476,57 475,57 475,57.78C474,58 473,59 473,60C472.97,68 471,76 470.47,79C470,78.81 470,78 469,78C467,74 463,68 459,63C452,53.8 449,52 447,51C446,51 446,51 446,51C444,51 443,53 443,54C443,54 443,55 443,55C443,57 444,66 441,70C440,72.11 437,74 435,74C435,74.11 435,74 435,74C436,71 436,69 435.24,66C432,56.16 418.53,42.68 398.83,37C375,31 371,26.78 367,22L366,22C366,21 365.86,21 365,21M364,24C368,28 373,34 398,40C422,46 438,67 431,75C431,75 432,76 434,77C437,77 440,76 443,71C447,66.24 446,54 446,54C446,54 446,54 446,54C450,55 463,73 467,79C468,81 469,82 470,82C475,83 476,60 476,60C491,85 483,91 488.45,96C490,97 492,98 494,98C497,99.45 500,98.26 505,97C508,97 511,97 513,98C521,99 523,103 523,103C502,113 515,122 519,124C521,125 522.89,126.52 524,126C535.62,128 537,102 537,102C545,131 535,139 531,147C531,147 531,147 532,147C534,147 537,148 543,153.63C552,161 558,228 581,241.06C581,241 559,229 554,221C554,220 553,219 553,219C552,219 562,250 560,260C560,260 552,246 545,245C545,245.2 544,245 543,245C540,246 553,280 549,291.81C549,291.81 538,270 525,269C524,268 523,268 522,268C513,269 518,288.97 528,299C528,299 512.26,296 507.29,285C506,283 504,281.78 502,281C499,281 496,283.17 494,289C491,301.17 486,313 476,317C476,317 482,297 475,296C475,296 474,296 474,296C466,298 454,314 462,324C462,324 447,322 447,311.37L431,325C433,315 419,310 419,310C418,312 410,322 410,322C412,313 399,309 399,309C399,309 392,314 395,321C395,321 375,313 375,309C375,307 363,299 351,297C344,296 336,297 331.96,305C331.96,305 332,292 319,290L319.39,290C315,290 305,302.62 305,302.62C307,293.15 302,286 300,286.32C299,286 298.93,286.41 298.56,286C288,299 279,302 279,302C280,280 268,273 268,273C261,275 260,292 260,292C255,281 251,250 251,250C243,256.08 241,297 241,297C232,285 234,237 231,237C231.38,237 231,237 230,237C226,242 216,265 216,265C210,255 230.12,176 228,175C228.42,175 227,175 227,175C219,173 207,200 207,200C207,155 231,132 231,132C232,129 232,128 230,128C227,127 219,132 219,132C219,119 271,94 271.06,84C270,83 269,82 268,82C262,81 250,85 250,85C267,64 314,64.16 314,64.16C311,59 299,57.42 295,56C295,56 294,56 294,56C305.45,46 336,55.79 330,44C327.88,40 322,39.07 319,38C319,38 318,38 318,38C328,36 336,36 344,37C363,40 376,50 376,50C361,37 364,24 364,24" style="fill:#401a23;fill-rule:nonzero;"/>
        <path d="M413,141C415.93,146 412,171 410,174C410,174 420,152.44 429,152C434.38,151 435,157 437,162C439,167 435,174 438,181C439,173 447.33,170 450,170C454,176 452,178 452,183.56C452,191 440,221.38 440,221.38C457,214 459,183 465,188.07C469,191 465,209 465,209C465,209 475,196.87 477.76,188C477,191 475,201 480,213.61L487,194C504,187 521,195 519,211C518,217 517,229 515,234C497,282 478,272 469,261C449,286 420,304 379,303.24C377,303 375,303 373,302C372,310 368.98,319 365,326C365,327 366,327 367,328C375,333 413,338 423,350C432,356 440,367 440,376C440,380 439,386 437,393L232,368C233,354 238.37,338 251,323.62C260,312 289.81,314 312,316C312,316 319.72,317 327,317C329,310 332,301 334,294C299,281 278,258 274,251C235,178 269,146 277,112C279,102 286,95 294,88.26C288,111 292,149 292,149C295.85,106.48 317,95 317,95C326,107 306,145 306,145C319,136 323,126 327,118C330,110.66 334,112 334,122C334,135 321.13,157 350,171C350,171 336,156 352.78,135C355,131 362.31,125 366,125C379,127 358,164.15 359,163C383,159 378,127 391,122C393,121 377,146 396.92,169C396.92,169 391,136 402,134C405,133 411,139 413,141" style="fill:#f2dfbd;fill-rule:nonzero;"/>
        <path d="M413,141C415.93,146 412,171 410,174C410,174 420,152.44 429,152C434.38,151 435,157 437,162C439,167 435,174 438,181C439,173 447.33,170 450,170C454,176 452,178 452,183.56C452,191 440,221.38 440,221.38C457,214 459,183 465,188.07C469,191 465,209 465,209C465,209 475,196.87 477.76,188C477,191 475,201 480,213.61L487,194C504,187 521,195 519,211C518,217 517,229 515,234C497,282 478,272 469,261C449,286 420,304 379,303.24C377,303 375,303 373,302C372,310 368.98,319 365,326C365,327 366,327 367,328C375,333 413,338 423,350C432,356 440,367 440,376C440,380 439,386 437,393L232,368C233,354 238.37,338 251,323.62C260,312 289.81,314 312,316C312,316 319.72,317 327,317C329,310 332,301 334,294C299,281 278,258 274,251C235,178 269,146 277,112C279,102 286,95 294,88.26C288,111 292,149 292,149C295.85,106.48 317,95 317,95C326,107 306,145 306,145C319,136 323,126 327,118C330,110.66 334,112 334,122C334,135 321.13,157 350,171C350,171 336,156 352.78,135C355,131 362.31,125 366,125C379,127 358,164.15 359,163C383,159 378,127 391,122C393,121 377,146 396.92,169C396.92,169 391,136 402,134C405,133 411,139 413,141Z" style="fill:none;fill-rule:nonzero;stroke:#401a23;stroke-width:3px;stroke-linecap:round;stroke-linejoin:round;"/>
        <path d="M477.76,188C477,187 478,187 478,187C477,187 477,187 477.76,188" style="fill:#ded3af;fill-rule:nonzero;"/>
        <path d="M485,189C485,189 485.83,188 485,188C485,188 485,188 485,189" style="fill:#c5dfa0;fill-rule:nonzero;"/>
        <path d="M315,173C314,178 309,182 304,181C298,180 295,175 295,170.52C296,165 301,161 306,162C312,163 315,168 315,173" style="fill:#231f20;fill-rule:nonzero;"/>
        <path d="M425,200C424,206 419,210 413,209C408,208 404,203.35 405,197.82C406,192 411,188 416,189C422,190 426,195 425,200" style="fill:#231f20;fill-rule:nonzero;"/>
        <path d="M493,257C492,261 489.07,264 484,263C480,263 478,259 478.71,255C479,251 483,248 487,248C491,249.54 494,253 493,257" style="fill:#231f20;fill-rule:nonzero;"/>
        <path d="M189,388L457,403C459,398 464,374 453,360C449,356 406.92,334 387.23,329C387.23,329 382,353 344,350C307,348 305,315.09 305,315.09C305,315.09 252,310 230.27,322C214,331 192,378 189,388Z" style="fill:#533a76;fill-rule:nonzero;stroke:#1d1429;stroke-width:3px;"/>
        <path d="M334,204C326,202.8 320,201 316,200C314,209 323,223 334,204" style="fill:#fff;fill-rule:nonzero;"/>
        <path d="M368,208C368,208 368,208 368,208C365,209 362,209 358,208C356,208 354,208 351,208C350,217 361,228 368,208" style="fill:#fff;fill-rule:nonzero;"/>
        <path d="M368,208C368,208 368,208 368,208C370.65,224 380,219 381,207C378,206 373,208 368,208" style="fill:#fff;fill-rule:nonzero;"/>
        <path d="M386,213C385,208 383,207 381,207C380,219 370.65,224 368,208C366,213 365,216 363,217C364,219 366.03,221 366,223C366.92,230 366,237.94 364.71,244C381,236 388,221 386,213" style="fill:#5c2012;fill-rule:nonzero;"/>
        <path d="M336.05,216C337.12,210 344,209 352,211C351,210 351,209 351,208C346.05,207 339,205 334,204C323,223 314,209 316,200C316,200 315,200 315,200C309,200 305,202 305,208C304,212 304.85,226 313,236C328,235 333,227 336.05,216" style="fill:#5c2012;fill-rule:nonzero;"/>
        <path d="M366,223C366,221 364,219 363,217C358,222 353,217 352,211C344,209 337.12,210 336.05,216C333,227 328,235 313,236C318,243 326,248 339,249C349,249 357,247 364.71,244C366,237.94 366,230 366,223" style="fill:#dfa1aa;fill-rule:nonzero;"/>
    </g>

    <!-- Arms 1 -->
    <g>
        <!-- Hand 1 -->
        <path style="fill:#f2dfbd;fill-rule:nonzero;stroke:#ab9263;stroke-width:3px;">
            <animate dur="0.6s" repeatCount="indefinite" attributeName="d" values="M95,421C110,387 133,300 135,271C136,246 139,250 135.32,228C134,223 139,207 137,201C131.07,186 133,194 130,186C126.53,169.02 119,155 119,155C104,162 117,195 112,187C106,177 54,124 44.86,127C35,130 73.83,175 73.83,175C73.83,175 58,208 65,225C69,234 74,232 91,246C100,253 98,263 95,274C79,316 67,392 67,427L95,421Z;
                M95,421C111,387 133,300 135,271C137,246 139,246 132,226C129,220 132,203 129,199C120,185 123,193.14 119,184.99C112,169 103,157 103,157C89,166 108,196 101,189.8C93,181 33,138 24,143C15,148 61,185 61,185C61,185 52,220 62,235C68,244 72,241 91,251C102,256 99,263 95,274C79,316 67,392.86 67,427L95,421Z;
                M95,421C110,387 133,300 135,271C136,246 139,250 135.32,228C134,223 139,207 137,201C131.07,186 133,194 130,186C126.53,169.02 119,155 119,155C104,162 117,195 112,187C106,177 54,124 44.86,127C35,130 73.83,175 73.83,175C73.83,175 58,208 65,225C69,234 74,232 91,246C100,253 98,263 95,274C79,316 67,392 67,427L95,421Z"/>
        </path>
        <!-- Fingers -->
        <path style="fill:#f2dfbd;stroke:#ab9263;stroke-width:3px;stroke-miterlimit:1.5;">
            <animate dur="0.6s" repeatCount="indefinite" attributeName="d" values="M66,208C72,211 90,220.73 94,211C97,202 90,201 79,196C70,193 64,188 60,198C57,204 66,208 66,208Z;
                M63,219C69.77,220 89,225 91,215C92,205 84,206 73.35,204C63,203 57,200 54,211C53,217 63,219 63,219Z;
                M66,208C72,211 90,220.73 94,211C97,202 90,201 79,196C70,193 64,188 60,198C57,204 66,208 66,208Z"/>
        </path>
        <path style="fill:#f2dfbd;stroke:#ab9263;stroke-width:3px;stroke-miterlimit:1.5;">
            <animate dur="0.6s" repeatCount="indefinite" attributeName="d" values="M62,223C67,226 84,233 87,224C90,216 83,215 73,212C64,209 59,205.95 55,215C53,220 62,223 62,223Z;
                M63,235C68,236 87,238 88,229C88,220 81,221 71,220C62,220 56,218.46 55,228C54,234 63,235 63,235Z;
                M62,223C67,226 84,233 87,224C90,216 83,215 73,212C64,209 59,205.95 55,215C53,220 62,223 62,223Z"/>
        </path>
        <path style="fill:#f2dfbd;stroke:#ab9263;stroke-width:3px;stroke-miterlimit:1.5;">
            <animate dur="0.6s" repeatCount="indefinite" attributeName="d" values="M72,192.54C81.66,196 94,208 99,200C105,191 97.87,188 88,182C79.16,177 70,175 67,181C64,188 66,190 72,192.54Z;
                M65,202C75,203 90,212 93,202C96,193 89,192 78,189C68,186 59,186 58,192C56,200 59,201 65,202Z;
                M72,192.54C81.66,196 94,208 99,200C105,191 97.87,188 88,182C79.16,177 70,175 67,181C64,188 66,190 72,192.54Z"/>
        </path>
        <!-- Hand 2 -->
        <path style="fill:#f2dfbd;fill-rule:nonzero;stroke:#ab9263;stroke-width:3px;">
            <animate dur="0.6s" repeatCount="indefinite" attributeName="d" values="M323.35,435C345,448 354,418.36 339,407C323,394 327,385 275,349C269,346 263,339.11 261,333C255,318 257,327 254,315C248,288 243,287 243,287C229,293 243,315.17 234,315C220,315 173,259.64 162.06,268C154.51,273 197,310 197,310C197,310 193,309.86 190,312C188,315 189,319 189,319C189,319 185,318 183,321C181,323 183,329 183,329C183,329 176,330 176,334C176,341 187,345.49 202,354.6C210.96,359 252,377 259,384C274,396.64 301,421 323.35,435Z;
                M323.35,435C345,448 354,418.36 339,407C323,394 327,385 275,349C269,346 263,344 266,338C264,321 264,331 265,319C266,291 261,289 261,289C246,291 254,315 245,313.63C232,310 201,244 187,249C179,252 211,299 211,299C211,299 207,297 204,299C201,301 200,305 200,305C200,305 197,303 195,306C192,308.37 192.71,314 192.71,314C192.71,314 186,313 185,316C182,323 192,330 204,343C211,350 246,377 259,384C274,396.64 301,421 323.35,435Z;
                M323.35,435C345,448 354,418.36 339,407C323,394 327,385 275,349C269,346 263,339.11 261,333C255,318 257,327 254,315C248,288 243,287 243,287C229,293 243,315.17 234,315C220,315 173,259.64 162.06,268C154.51,273 197,310 197,310C197,310 193,309.86 190,312C188,315 189,319 189,319C189,319 185,318 183,321C181,323 183,329 183,329C183,329 176,330 176,334C176,341 187,345.49 202,354.6C210.96,359 252,377 259,384C274,396.64 301,421 323.35,435Z"/>
        </path>
    </g>
</svg>
