<svg xmlns="http://www.w3.org/2000/svg" height="236" width="44" viewBox="0 0 44 236"><title>Autumn Rain</title><desc>Created with Sketch.</desc><path d="M39.223 193.087v3.268c0 3.067-1.07 5.662-3.22 7.783-2.35 2.035-4.69 4.056-7.01 6.063-3.04 3.1-5.26 7.01-6.67 11.74.98.805 2.26 1.88 3.85 3.227s3.21 2.938 4.86 4.773 2.47 3.31 2.47 4.43c0 .543-.1.923-.32 1.14-.21.213-.59.32-1.14.32-.43 0-1.4-1.24-2.9-3.72-1.51-2.48-3.93-5.396-7.29-8.75-.31 1.29-.47 2.508-.47 3.655 0 1.204.11 2.13.32 2.774.22.643.58 1.47 1.1 2.47-.78-.83-1.34-1.784-1.68-2.86s-.52-2.214-.52-3.418c0-1.118.12-2.222.35-3.31-3.3-2.638-6.77-4.932-10.41-6.88s-6.95-3.34-9.93-4.172c4.36-.945 9.15-2.05 14.38-3.31s10.15-3.14 14.75-5.633 7.76-5.69 9.48-9.59zM9.943 214.2c1.95.89 3.85 1.914 5.7 3.075s3.73 2.472 5.65 3.934c.55-2.21 1.2-4.267 1.96-6.17.76-1.91 1.67-3.52 2.73-4.84-1.29.63-3.47 1.332-6.54 2.106-3.06.774-6.23 1.405-9.5 1.892zm.69-15.996c0-.946.36-1.534 1.07-1.763.72-.226 1.45-.37 2.2-.43h9.24c.89 0 1.57-.104 2.04-.32.48-.214.71-.71.71-1.483 0-.717-.55-1.605-1.65-2.666-1.11-1.06-2.09-1.59-2.95-1.59h-7.39c-.89 0-1.66-.38-2.3-1.14-.65-.76-.97-1.7-.97-2.817h15.31c.11-.086.23-.193.34-.322s.17-.35.17-.666c0-.4-.15-.88-.45-1.44s-.84-1.24-1.61-2.043c1 .63 2.11 1.556 3.33 2.775 1.22 1.218 1.83 2.372 1.83 3.46 0 .804-.24 1.37-.71 1.7-.47.33-1.17.494-2.09.494h-1.89c1.43 1.346 2.57 2.58 3.42 3.697s1.27 2.293 1.27 3.526c0 1.032-.49 1.756-1.46 2.172-.98.415-2.17.623-3.57.623h-9.98c-.54 0-.94.057-1.2.172s-.39.356-.39.73c0 .46.26 1.103.77 1.934-1.06-.66-1.84-1.376-2.34-2.15s-.75-1.59-.75-2.45zm.21-23.263v-3.523c.83.373 1.34.896 1.53 1.57.19.673.29 1.325.32 1.956h13.03c.63 0 .95-.243.95-.73 0-.4-.2-.91-.58-1.526-.39-.617-.99-1.355-1.79-2.215 1.52.803 2.78 1.75 3.76 2.838.99 1.09 1.49 2.193 1.49 3.31 0 .86-.35 1.456-1.06 1.786-.7.33-1.95.494-3.76.494h-12.04v2.537c-.66-.086-1.4-.853-2.21-2.3-.82-1.448-2.95-2.846-6.388-4.193h6.748zm-.21-9.242c0-.946.36-1.534 1.07-1.763.72-.23 1.45-.373 2.2-.43h9.24c.89 0 1.57-.107 2.04-.322.48-.214.71-.71.71-1.483 0-.718-.55-1.606-1.65-2.667-1.11-1.06-2.09-1.59-2.95-1.59h-7.39c-.89 0-1.66-.38-2.3-1.14-.65-.76-.97-1.698-.97-2.816h15.31c.11-.086.23-.193.34-.322s.17-.352.17-.667c0-.4-.15-.88-.45-1.44s-.84-1.24-1.61-2.043c1 .63 2.11 1.555 3.33 2.774 1.22 1.216 1.83 2.37 1.83 3.46 0 .802-.24 1.37-.71 1.7-.47.33-1.17.492-2.09.492h-1.89c1.43 1.347 2.57 2.58 3.42 3.698s1.27 2.294 1.27 3.527c0 1.032-.49 1.756-1.46 2.172-.98.413-2.17.62-3.57.62h-9.98c-.54 0-.94.057-1.2.17s-.39.36-.39.733c0 .46.26 1.104.77 1.935-1.06-.66-1.84-1.377-2.34-2.15s-.75-1.59-.75-2.45zm18.92-28.853h-12.56c-.66 0-1.18.072-1.57.215-.38.142-.58.544-.58 1.203 0 .717.75 1.663 2.26 2.838 1.5 1.177 2.39 1.765 2.64 1.765h7.31c.61.143 1.17.638 1.7 1.483.53.846.8 1.685.8 2.516h-14.71c-.46 0-.69.172-.69.516 0 .43.39 1.246 1.16 2.45-1.37-1.09-2.45-2.085-3.24-2.99-.79-.902-1.18-1.61-1.18-2.127 0-.803.43-1.312 1.31-1.527.87-.215 2.23-.322 4.06-.322h1.59c-1.75-1.118-3.34-2.3-4.79-3.547-1.45-1.248-2.17-2.56-2.17-3.935 0-1.06.35-1.762 1.07-2.106s1.79-.516 3.23-.516c.43 0 .85.007 1.26.02.42.016.84.023 1.27.023-1.52-1.06-3.04-2.242-4.55-3.546-1.52-1.305-2.28-2.616-2.28-3.935 0-.918.24-1.57.73-1.957.48-.387 1.32-.58 2.49-.58h12.38c.69 0 1.04-.216 1.04-.646 0-.49-.46-1.235-1.38-2.238.95.345 1.75.904 2.41 1.678s.99 1.664.99 2.667c0 1.663-1.08 2.494-3.23 2.494h-9.33c-.74 0-1.29.117-1.63.346-.35.23-.52.602-.52 1.118 0 .66.76 1.59 2.28 2.795 1.52 1.203 2.39 1.805 2.62 1.805h7.31c.61.144 1.17.624 1.7 1.44.53.82.8 1.686.8 2.603zm-2.97-33.325c.63 0 .95-.216.95-.646 0-.573-.48-1.362-1.42-2.365 1.09.57 1.93 1.295 2.54 2.17.6.874.9 1.655.9 2.343 0 .774-.24 1.398-.71 1.87s-1.2.71-2.17.71l-9.68-.043c-.66 0-1.18.073-1.57.216-.38.143-.58.545-.58 1.204 0 .716.75 1.662 2.26 2.837 1.5 1.175 2.39 1.763 2.64 1.763h7.31c.61.143 1.17.638 1.7 1.484.53.845.8 1.684.8 2.515h-14.71c-.46 0-.69.17-.69.513 0 .43.39 1.247 1.16 2.45-1.37-1.088-2.45-2.084-3.24-2.987s-1.18-1.613-1.18-2.13c0-.802.43-1.31 1.31-1.525.87-.214 2.23-.322 4.06-.322h1.59c-1.75-1.12-3.34-2.3-4.79-3.548s-2.17-2.56-2.17-3.935c0-1.06.35-1.763 1.07-2.107s1.79-.515 3.23-.515c.43 0 .85.007 1.26.022.42.014.84.02 1.27.02.83 0 1.72.008 2.65.023.93.014 2.05.02 3.37.02h1.96c.56 0 .85-.013.88-.042zm-16.43-52.633c2.87 0 5.13 1.118 6.78 3.354s2.47 5.047 2.47 8.43c1.92-1.09 4.46-2.594 7.63-4.515s6.41-4.544 9.72-7.87 4.97-6.693 4.97-10.104c0-1.746-.52-3.556-1.55-5.416-1.03-1.87-1.95-3.2-2.75-4 1.89 1.29 3.37 2.87 4.45 4.73 1.07 1.86 1.61 4.37 1.61 7.524 0 3.9-1.23 7.39-3.68 10.47-2.45 3.082-5.4 5.69-8.85 7.827-3.46 2.135-7.52 4.292-12.2 6.47 0-3.783-.45-6.642-1.37-8.577s-2.84-2.903-5.76-2.903c-3.21 0-5.53.91-6.95 2.73-1.417 1.82-2.126 5.325-2.126 10.514h24.076c1.01 0 1.91-.295 2.71-.88.81-.59 1.48-1.6 2.02-3.034V80.3c-.31-1.664-.91-2.975-1.8-3.935s-1.98-1.44-3.27-1.44h-13.93c-1.66 0-3.48-.316-5.46-.947s-3.43-1.462-4.346-2.494c0 6.22.745 10.385 2.236 12.492 1.49 2.107 3.53 3.16 6.11 3.16 2.49 0 4.73-.68 6.7-2.042 1.98-1.362 3.66-3.69 5.04-6.988 0 3.583-.99 6.343-2.95 8.278s-4.41 2.902-7.33 2.902c-3.7 0-6.48-1.448-8.344-4.343C2.143 82.048 1.21 77.117 1.21 70.15l-.645-.687h.687c0-6.85.63-11.66 1.892-14.426 1.263-2.767 3.593-4.15 7.003-4.15zm.74-17.453h15.91c.37-.03.55-.22.55-.56 0-.26-.09-.57-.27-.93-.19-.36-.51-.94-.97-1.74.77.37 1.53 1 2.28 1.87.74.87 1.12 1.71 1.12 2.52 0 .45-.32 1.05-.95 1.78s-1.48 1.1-2.54 1.1h-2.32c1.75 1.75 3.15 3.222 4.21 4.426s1.6 2.25 1.6 3.138c0 .975-.58 1.842-1.72 2.602-1.15.76-2.69 1.14-4.61 1.14-3.89 0-6.92-1.076-9.07-3.226s-3.22-4.945-3.22-8.38v-3.74zm9.03 11.218c1.4 0 2.43-.228 3.09-.687s.99-1.09.99-1.892c0-.687-.21-1.425-.62-2.213-.42-.784-.98-1.584-1.7-2.384h-9.59c0 2.15.8 3.88 2.39 5.2s3.4 1.978 5.44 1.978zM1.3 24.224c0-.71.258-1.32.774-1.8.516-.49 1.218-.73 2.107-.73 1.005 0 1.795.43 2.365 1.29.58.86.86 1.63.86 2.32 0 .6-.32 1.05-.96 1.35-.65.3-1.4.45-2.262.45-1.088 0-1.84-.25-2.257-.77-.415-.52-.623-1.22-.623-2.11zm9.373.56c0-.89.34-1.51 1.03-1.87s1.51-.54 2.45-.54h12.09c.8-.11 1.2-.41 1.2-.9 0-.34-.19-.74-.56-1.2l-.73-.91c1.18.69 2.04 1.39 2.58 2.09.55.7.82 1.5.82 2.39 0 .74-.32 1.34-.95 1.8s-1.37.69-2.23.69h-12.69c-.54 0-.82.2-.82.6 0 .55.49 1.39 1.47 2.54-.55-.14-1.29-.73-2.24-1.76-.95-1.04-1.42-2.01-1.42-2.93zm15.91-21.84c.63 0 .95-.22.95-.65 0-.57-.48-1.36-1.42-2.36 1.09.57 1.93 1.3 2.54 2.17.6.87.9 1.66.9 2.34 0 .78-.24 1.4-.71 1.87-.47.48-1.2.71-2.17.71l-9.68-.04c-.66 0-1.18.07-1.57.22-.38.14-.58.54-.58 1.2 0 .72.75 1.66 2.26 2.84 1.5 1.17 2.39 1.76 2.64 1.76h7.31c.61.14 1.17.64 1.7 1.48.53.85.8 1.69.8 2.52h-14.71c-.46 0-.69.17-.69.52 0 .43.39 1.24 1.16 2.45-1.37-1.09-2.45-2.09-3.24-2.99-.79-.91-1.18-1.61-1.18-2.13 0-.8.43-1.31 1.31-1.53.87-.21 2.23-.32 4.06-.32h1.59c-1.75-1.12-3.34-2.3-4.79-3.55-1.45-1.24-2.17-2.56-2.17-3.93 0-1.06.35-1.76 1.07-2.11.72-.34 1.79-.51 3.23-.51.43 0 .85 0 1.26.02.42.01.84.02 1.27.02.83 0 1.72.01 2.65.02s2.05.02 3.37.02h1.96c.56 0 .85-.01.88-.04z" fill-opacity=".5" fill-rule="evenodd"/></svg>