<?xml version="1.0" encoding="UTF-8" standalone="no"?>
<svg width="512px" height="512px" viewBox="0 0 512 512" version="1.1" xmlns="http://www.w3.org/2000/svg" xmlns:xlink="http://www.w3.org/1999/xlink" xmlns:sketch="http://www.bohemiancoding.com/sketch/ns">
    <!-- Generator: Sketch 3.2.2 (9983) - http://www.bohemiancoding.com/sketch -->
    <title>logo_symbol</title>
    <desc>Created with Sketch.</desc>
    <defs></defs>
    <g id="Home" stroke="none" stroke-width="1" fill="none" fill-rule="evenodd" sketch:type="MSPage">
        <g id="logo_symbol" sketch:type="MSArtboardGroup" fill="#FFFFFF">
            <circle id="Oval-13" fill-opacity="0.32605865" sketch:type="MSShapeGroup" cx="256" cy="256" r="200"></circle>
            <path d="M506.440683,479.455182 L468.134848,479.455182 C432.180946,479.455182 401.771793,466.989619 376.906478,442.058119 C353.049216,414.79968 329.360318,387.707856 305.839073,360.781837 C269.549153,325.545317 223.683415,299.783154 168.240482,283.494574 C158.831984,294.796854 146.231506,309.672426 130.438671,328.121735 C114.645835,346.571045 95.9971285,365.352493 74.4919908,384.466643 C52.9868531,403.580793 35.6821971,413.137724 22.5775039,413.137724 C16.1931661,413.137724 11.7409973,411.891168 9.22086401,409.398018 C6.70073069,406.904868 5.44068293,402.500369 5.44068293,396.184389 C5.44068293,391.198089 19.9732338,379.979083 49.0387715,362.527033 C78.1043091,345.074983 112.293605,316.902811 151.607685,278.009672 C136.486885,274.353052 122.206344,272.524769 108.765633,272.524769 C94.652886,272.524769 83.8164753,273.771326 76.2560753,276.264475 C68.6956753,278.757625 59.0353091,282.995917 47.274687,288.979477 C57.0192025,280.004137 68.191626,273.522044 80.7922926,269.533004 C93.3929592,265.543964 106.749465,263.549474 120.862212,263.549474 C133.966905,263.549474 146.903396,264.879134 159.672071,267.538494 C190.585707,229.310195 217.466726,189.087979 240.315934,146.870639 C263.165143,104.6533 279.461761,66.2593664 289.206276,31.6876869 C300.294863,82.2155262 313.231353,137.811936 328.016136,198.478586 C342.800918,259.145235 364.809752,316.154409 394.043299,369.507818 C423.276845,422.861227 460.742265,459.509982 506.440683,479.455182 L506.440683,479.455182 Z M258.964828,139.889854 C248.548277,162.494414 236.535821,184.516908 222.927101,205.957998 C209.318381,227.399088 193.945799,249.255375 176.808892,271.527514 C202.682261,277.843494 226.791175,285.405936 249.136357,294.215065 C271.481539,303.024195 290.382256,313.578372 305.839073,325.877912 C298.446682,310.919012 290.21437,285.655471 281.14189,250.086532 C272.06941,214.517592 264.67713,177.785734 258.964828,139.889854 L258.964828,139.889854 Z" id="A" sketch:type="MSShapeGroup"></path>
        </g>
    </g>
</svg>