<?xml version="1.0" encoding="utf-8"?>
<svg xmlns="http://www.w3.org/2000/svg" viewBox="0 0 512 512" width="512" height="512">
    <g id="home">
        <path d="M256 19.27L25.637 249.638 19.27 256 32 268.73l6.363-6.367L256 44.727l217.637 217.636L480 268.73 492.73 256l-6.367-6.363zM96 48v107.273l64-64.002V48zm160 20.727l-192 192V486h64V320h96v166h224V260.727zM288 320h96v80h-96z"/>
    </g>
    <g id="menu">
        <path d="M32 96v64h448V96H32zm0 128v64h448v-64H32zm0 128v64h448v-64H32z"/>
    </g>
    <g id="close">
        <path d="M256 16C123.45 16 16 123.45 16 256s107.45 240 240 240 240-107.45 240-240S388.55 16 256 16zm0 60c99.41 0 180 80.59 180 180s-80.59 180-180 180S76 355.41 76 256 156.59 76 256 76zm-80.625 60c-.97-.005-2.006.112-3.063.313v-.032c-18.297 3.436-45.264 34.743-33.375 46.626l73.157 73.125-73.156 73.126c-14.63 14.625 29.275 58.534 43.906 43.906L256 299.906l73.156 73.156c14.63 14.628 58.537-29.28 43.906-43.906l-73.156-73.125 73.156-73.124c14.63-14.625-29.275-58.5-43.906-43.875L256 212.157l-73.156-73.125c-2.06-2.046-4.56-3.015-7.47-3.03z"/>
    </g>
    <g id="design">
        <path d="M54.438 29.793a23.808 23.808 0 0 0-1.204.012c-4.688.157-7.914 1.734-10.113 3.933-2.932 2.932-4.76 7.689-3.588 15.305 1.174 7.616 5.683 17.754 15.272 28.941 67.894 79.21 132.935 155.56 183.703 211.97 12.273 13.636 23.693 26.079 34.125 37.134 12.095-31.902 34.57-54.144 62.902-64.715-10.825-10.199-22.936-21.313-36.197-33.248C242.93 178.357 166.578 113.314 87.369 45.42c-11.186-9.59-21.325-14.098-28.941-15.272a29.555 29.555 0 0 0-3.99-.355zm375.109 1.043c-.307-.003-.6.004-.875.023-2.212.147-3.34.654-4.576 1.891l-27.58 27.58 55.156 55.154 27.578-27.58c1.238-1.236 1.745-2.362 1.89-4.574.15-2.21-.37-5.434-1.804-9.164-2.87-7.46-9.277-16.667-17.055-24.445-7.778-7.778-16.985-14.185-24.445-17.055-3.264-1.255-6.138-1.81-8.287-1.83h-.002zm-45.758 42.22l-9.9 9.901 9.9 9.898 12.727 12.729 9.9 9.898 12.729 12.729 9.898 9.9 9.9-9.9-55.154-55.154zm-22.627 22.628l-87.389 87.39 10.467 9.332 86.822-86.822-9.9-9.9zm22.627 22.629l-86.092 86.09 10.469 9.331 85.523-85.523-9.9-9.899zm22.629 22.624l-84.795 84.795 10.469 9.332 84.226-84.226-9.898-9.9h-.002zm-213.857 123.35L72.664 384.186l9.898 9.898 119.342-119.342-9.343-10.455zm157.66 12.147c-30.461 7.627-53.24 29.184-63.608 65.218 5.652 5.785 10.956 11.085 15.78 15.707 7.58 7.264 14.096 13.007 19.21 16.957 1.777-17.225 10.045-33.062 21.645-44.691 10.601-10.628 24.496-18.006 39.125-19.092-3.87-4.836-9.139-10.75-15.629-17.523-4.838-5.047-10.416-10.623-16.523-16.576zm-136.303 11.748L95.289 406.809l9.9 9.902 118.075-118.074-9.346-10.455zm21.361 23.894L117.918 429.437l9.896 9.9 116.81-116.806-9.345-10.455zm150.293 16.307c-10.397.137-20.929 5.28-29.582 13.955-11.537 11.565-18.674 28.851-16.267 45.701 5.334 37.342 23.75 65.81 49.46 81.236 22.728 13.636 51.452 17.35 83.643 6.983-24.222-4.01-46.475-30.705-48.197-50.649 10.63 12.814 23.94 24.547 38.426 31.75-9.881-22.578-9.201-45.453-11.088-64.322-1.352-13.522-3.891-24.982-11.377-35.162-7.486-10.18-20.423-19.8-44.74-27.906a31.062 31.062 0 0 0-10.278-1.586zm-322.35 71.816l-.003.002.002.002.002-.004zm-.001.004l-12.117 30.3 30.392 30.395 30.305-12.12-6.61-6.612-12.732-12.727-9.898-9.898-12.73-12.728-6.61-6.61zm-19.395 48.485l-12.992 32.476 32.478-12.992-19.486-19.485z"/>
    </g>
    <g id="work">
        <path d="M409.28 19.313c-20.507.34-40.836 8.245-56.53 23.937-20.558 20.558-27.823 49.56-22.188 76.156l1.032 4.938-3.594 3.594-43.406 43.406c3.86 2.906 7.167 6.498 9.72 10.625 7.166 11.59 6.305 28.69-6.22 41.218l-11.97 11.968 30.438 30.47 79.563-79.563 3.563-3.594 4.968 1.06c26.44 5.525 55.136-1.98 75.75-22.593 23.596-23.595 29.518-57.696 18.688-87.093l-49.22 49.25c-13.71 13.708-36.3 15.01-50.093 1.22-13.79-13.793-13.07-36.618.814-50.5l49.22-49.25c-8.545-3.15-17.475-4.93-26.44-5.22-1.367-.045-2.726-.054-4.093-.032zM72.157 21.53c-13.533.162-25.857 6.134-34.937 15.69-18.163 19.108-23.575 51.08 4.56 79.218l86.126 86.124c30.25 2.733 53.004 26.662 53.906 57.532L182 266c.883 5.654 4.31 10.126 8.844 12.47 5.734 2.963 12.387 3.145 19.625-4.095l64.405-64.406c7.718-7.72 6.896-12.716 3.53-18.157-3.364-5.442-11.272-10.063-18.81-10.063h-.19l-.186-.03c-30.125-1.298-53.427-23.487-56.5-53l-86.595-86.595C100.84 26.84 85.69 21.37 72.155 21.53zm191.188 227.314l-14.03 14.03 136.5 136.532 3.31 3.313-.655 4.655-4.595 31.813 77.188 49.375L489 460.625l-49.375-77.22-31.78 4.595-4.658.688-3.312-3.313-136.53-136.53zm-27.72 26.812l-11.936 11.938c-12.238 12.24-29.134 13.86-41.438 7.5-4.515-2.334-8.513-5.66-11.656-9.72l-41.78 41.782-3.595 3.594-4.97-1.063c-26.596-5.632-55.6 1.632-76.156 22.188-23.598 23.596-29.52 57.697-18.688 87.094l49.25-49.25c13.883-13.877 36.71-14.605 50.5-.814 13.792 13.792 12.494 36.384-1.22 50.094l-49.25 49.25c29.398 10.83 63.498 4.906 87.095-18.688 20.613-20.615 28.114-49.342 22.595-75.78l-1.03-4.938 3.56-3.563 79.19-79.186-30.47-30.438z" />
    </g>
    <g id="education">
        <path d="M256 89.61L22.486 177.18 256 293.937l111.22-55.61-104.337-31.9A16 16 0 0 1 256 208a16 16 0 0 1-16-16 16 16 0 0 1 16-16l-2.646 8.602 18.537 5.703a16 16 0 0 1 .008.056l27.354 8.365L455 246.645v12.146a16 16 0 0 0-7 13.21 16 16 0 0 0 7.293 13.406C448.01 312.932 448 375.383 448 400c16 10.395 16 10.775 32 0 0-24.614-.008-87.053-7.29-114.584A16 16 0 0 0 480 272a16 16 0 0 0-7-13.227v-25.42L413.676 215.1l75.838-37.92L256 89.61zM119.623 249L106.5 327.74c26.175 3.423 57.486 18.637 86.27 36.627 16.37 10.232 31.703 21.463 44.156 32.36 7.612 6.66 13.977 13.05 19.074 19.337 5.097-6.288 11.462-12.677 19.074-19.337 12.453-10.897 27.785-22.128 44.156-32.36 28.784-17.99 60.095-33.204 86.27-36.627L392.375 249h-6.25L256 314.063 125.873 249h-6.25z"/>
    </g>
    <g id="projects">
        <path d="M128.688 115.594v147.75h285v-147.75h-285zm-111.844 20.47c17.374 47.14 54.372 80.413 94.906 93.81v-93.81H16.844zm414.375 12.31v88.657c21.457-9.083 42.92-25.257 64.374-47.374-21.52-22.562-42.633-35.173-64.375-41.28zm-226.25 132.47c-12.15 38.536-33.897 71.5-60.595 100.47l257.844-.002c-28.705-29.016-49.952-62.054-61.5-100.468H204.97zM101.843 400v43.78h337.562V400H101.844z"/>
    </g>
</svg>
