<?xml version="1.0" encoding="UTF-8"?>
<svg width="1440px" height="810px" viewBox="0 0 1440 810" version="1.1" xmlns="http://www.w3.org/2000/svg" xmlns:xlink="http://www.w3.org/1999/xlink">
    <!-- Generator: Sketch 43.1 (39012) - http://www.bohemiancoding.com/sketch -->
    <title>overlaybg</title>
    <desc>Created with Sketch.</desc>
    <defs></defs>
    <g id="Home" stroke="none" stroke-width="1" fill="none" fill-rule="evenodd" stroke-linecap="round" stroke-linejoin="round">
        <g id="overlaybg" stroke="#1F1F1F" stroke-width="290">
            <path d="M-41.4761763,34.2515553 C-16.3351113,28.2313523 128.951259,5.07167001 128.744486,13.3987335 C127.750829,53.4147051 -106.17141,94.2682441 7.47741038,71.1059747 C22.7958633,67.9839877 119.201736,37.8559777 131.085523,48.0136058 C140.325696,55.9116138 114.360451,65.7236232 105.10407,73.6026299 C92.7500463,84.1183422 78.6222838,92.4407122 66.3822342,103.088872 C51.9208086,115.669504 5.97871333,142.820078 25.1434447,143.163909 C58.3990853,143.760542 86.1498198,116.630496 116.917512,103.995516 C124.38357,100.929524 132.097499,98.4900464 139.800135,96.0792925 C182.551094,82.6991921 225.322536,69.3746734 268.266237,56.6267279 C272.350091,55.4144257 281.209023,49.9760986 280.817173,54.2180307 C282.44255,58.0243011 281.865921,61.2233259 279.964657,63.4468591 C253.346442,94.5769227 226.965803,126.077179 197.608866,154.63905 C152.416231,198.607747 103.356235,238.420759 56.6188916,280.743818 C45.6601307,290.667537 34.7840254,300.71208 24.5345044,311.366748 C21.731596,314.280451 13.9780635,323.124179 17.5925852,321.312773 C31.6900384,314.247876 43.3028706,302.96016 56.9774897,295.108042 C107.373995,266.169812 159.116362,239.628955 209.692948,211.006623 C212.586173,209.369287 214.292513,206.055105 217.196445,204.436834 C310.777905,152.286792 412.559987,114.183254 515.50276,84.9898132 C524.392707,82.4687217 550.267536,73.9215399 542.580305,79.0492624 C473.620937,125.048204 400.696257,164.813065 330.276657,208.543798 C265.85861,248.547551 201.622235,288.8607 138.08157,330.243897 C133.454232,333.257621 122.215274,345.600983 126.004254,341.583718 C154.717639,311.140361 183.602137,280.854112 212.872969,250.946339 C328.707197,132.591533 410.494319,105.634566 558.212067,38.5885633 C559.633225,37.9435296 561.538141,37.8158919 562.894142,38.5885633 C565.02269,39.8014459 566.868952,41.7920323 567.80626,44.0554939 C569.44234,48.0063893 570.723782,52.365654 570.363809,56.6267279 C565.426509,115.070577 551.537299,142.268161 534.075439,161.783949 C395.889246,316.224112 330.865876,363.433614 188.860424,467.194567 C185.206002,469.864791 175.600795,479.520881 178.900867,476.423396 C351.416415,314.498343 368.234961,290.900651 528.55438,162.90034 C539.638936,154.050341 639.237359,82.8968894 651.039336,77.5066137 C659.382936,73.6958702 640.996743,93.2232424 633.90105,99.0360359 C548.216116,169.229153 461.26005,237.894107 373.213713,305.101429 C252.430348,397.297502 133.592471,492.439369 7.47741038,577.196247 C-8.57647351,587.985419 26.8173121,543.311964 39.9271617,529.089965 C97.4260999,466.71321 156.235487,405.344159 218.752626,347.997889 C266.681415,304.033349 319.222663,265.343958 370.737356,225.641488 C412.177423,193.70355 454.15372,162.377532 497.539021,133.136692 C529.262098,111.755962 562.198004,92.1166884 595.849048,73.920632 C627.035369,57.05732 659.358108,42.3242607 691.824803,28.0809604 C699.570227,24.6830045 707.96181,22.9258839 716.223011,21.1119771 C718.613112,20.5871839 724.942021,19.0897518 723.564124,21.1119771 C507.335324,338.4532 536.532062,278.410096 241.716441,625.755852 C235.641972,632.912668 218.742986,655.434071 224.875859,648.327239 C285.739697,577.79764 265.006817,589.846365 346.596256,505.442784 C376.446428,474.563034 493.366335,371.54081 522.174039,347.158905 C637.817161,249.282323 755.921551,151.843414 884.42585,71.1059747 C886.224483,69.975919 890.69587,68.4080703 890.772361,70.5308644 C891.91111,102.133508 843.666081,154.187913 836.048927,162.169612 C626.960775,381.264378 452.8953,505.665201 213.596932,701.24415 C208.913468,705.071953 88.7240757,761.512276 94.2531857,763.964999 C100.775911,766.858493 215.200222,708.914389 220.735065,704.410639 C249.31501,681.154892 275.97278,655.595172 304.640271,632.447429 C1347.49755,-209.614125 -693.227107,1452.49617 823.484459,216.825385 C864.005491,183.812744 904.332808,149.912856 951.551368,126.600733 C954.618787,125.086327 962.708235,120.368737 961.335008,123.501903 C911.150591,238.00313 814.337575,298.276835 745.418314,405 C542.580305,719.099632 370.737356,676.439982 836.048927,266.947528 C870.674427,236.475728 382.156009,723.341071 390.399361,715.581311 C507.822264,605.046961 632.527465,502.51829 745.418314,387.754924 C839.34428,292.271012 929.118281,193.390848 1026.54575,101.471797 C1031.72754,96.5829722 1044.68489,82.4895592 1044.32004,89.6042274 C1043.30312,109.434058 1014.48744,167.313154 1002.24903,185.938581 C919.976677,311.147463 837.828877,436.487353 752.069296,559.333999 C721.256618,603.471739 568.164185,770.608717 595.849048,724.444775 C848.669058,302.872574 829.755448,406.673503 1182.44123,38.8930335 C1184.37953,36.8717713 1189.72715,31.4654522 1189.44404,34.2515553 C1176.27251,163.871826 1206.0403,128.517986 1125.89774,259.376779 C1069.64892,351.22126 1006.36722,438.922377 938.824516,522.811114 C913.468313,554.303777 884.836799,621.685207 848.559267,603.834002 C814.798873,587.221413 884.723058,537.69915 905.962038,506.640366 C1014.61169,347.756744 1126.51978,191.12102 1238.05777,34.2515553 C1241.00215,30.1105226 1250.787,19.0385375 1249.22168,23.8725064 C1243.4042,41.8378023 1233.92173,58.4507666 1224.8573,75.0167245 C1185.11458,147.649658 1145.42833,220.363737 1102.85273,291.373209 C1044.53009,388.646287 983.114265,484.035887 922.241042,579.733499 C920.784197,582.023776 917.785035,582.938108 916.056915,585.031279 C900.663421,603.676518 854.73491,739.788785 836.048927,724.444775 C817.282778,709.034936 897.053836,600.822057 911.706375,581.458829 C1003.23966,460.498228 1096.13446,340.568649 1189.44404,220.972945 C1193.26634,216.073868 1204.54693,202.134448 1202.96928,208.144603 C1184.47945,278.58279 1161.61578,364.877915 1126.54051,435.495843 C1086.8835,515.338293 1026.32456,587.56639 1006.47778,674.477841 C985.483034,766.416405 1088.87683,567.390218 1110.97193,541.458219 C1174.42381,466.987704 1314.93485,119.380074 1412.4986,112.078476 C1429.0065,110.843037 1092.4533,663.703547 1075.80225,691.277827 C1059.61308,718.087233 1045.27405,746.014629 1031.69468,774.235792 C1030.86493,775.960205 1035.605,773.314964 1036.97216,771.975947 C1062.2208,747.246964 1087.00894,722.03658 1111.24934,696.3185 C1127.82934,678.727796 1142.98203,659.834509 1159.39622,642.088984 C1208.30333,589.215062 1303.871,412.527196 1307.19956,484.47494 C1310.98876,566.379509 974.908343,954.461693 1297.42268,588.596963 C1316.82738,566.584011 1372.88314,519.948751 1398.39175,505.442784 C1419.1144,493.658444 1320.64967,577.62822 1316.27954,588.319557 C1293.30934,644.51517 1190.7192,771.133268 1249.97947,757.950023 C1324.43825,741.385664 1294.64615,642.530486 1351.42216,585.031279 C1394.44717,541.458219 1378.42623,582.82371 1372.97188,598.820394 C1357.4294,644.403764 1334.8812,688.368558 1327.50433,735.960512 C1325.28288,750.292282 1347.33532,714.776761 1356.71317,703.713741 C1364.16479,694.923093 1370.39927,685.138337 1377.95842,676.439982 C1386.55213,666.55115 1422.34157,641.951471 1423.10119,655.030608 C1423.37823,659.800622 1365.02495,747.395055 1366.51711,763.964999 C1367.18453,771.376501 1377.43199,753.824947 1383.26297,749.20158 C1396.30483,738.860723 1444.31128,700.226726 1458.34483,691.277827 C1459.87394,690.302747 1440.83063,734.348371 1440,735.960512 C1432.55617,750.4079 1420.64837,760.174537 1412.4986,774.235792 C1407.0545,783.628812 1391.7607,797.747422 1381.31436,794.79091 C1371.14747,791.913488 1490.35056,664.647354 1494.72817,655.030608" id="Path-2"></path>
        </g>
    </g>
</svg>